<?xml version="1.0" encoding="UTF-8"?>
<!DOCTYPE svg PUBLIC "-//W3C//DTD SVG 1.1//EN" "http://www.w3.org/Graphics/SVG/1.1/DTD/svg11.dtd">
<svg xmlns="http://www.w3.org/2000/svg" version="1.1" width="88px" height="88px" style="shape-rendering:geometricPrecision; text-rendering:geometricPrecision; image-rendering:optimizeQuality; fill-rule:evenodd; clip-rule:evenodd" xmlns:xlink="http://www.w3.org/1999/xlink">
<g><path style="opacity:1" fill="#1a5fbc" d="M 58.5,-0.5 C 68.1667,-0.5 77.8333,-0.5 87.5,-0.5C 87.5,1.16667 87.5,2.83333 87.5,4.5C 83.0345,3.26406 78.7012,3.26406 74.5,4.5C 72.4437,5.21611 70.277,5.88278 68,6.5C 64.8546,4.02355 61.688,1.69021 58.5,-0.5 Z"/></g>
<g><path style="opacity:1" fill="#f6a5a9" d="M 12.5,-0.5 C 16.8333,-0.5 21.1667,-0.5 25.5,-0.5C 25.6107,0.117425 25.944,0.617425 26.5,1C 25.4293,1.85175 24.4293,2.68509 23.5,3.5C 19.8828,4.6567 16.2161,4.6567 12.5,3.5C 12.5,2.5 12.5,1.5 12.5,0.5C 12.5,0.166667 12.5,-0.166667 12.5,-0.5 Z"/></g>
<g><path style="opacity:1" fill="#f7393d" d="M 25.5,-0.5 C 32.5,-0.5 39.5,-0.5 46.5,-0.5C 46.5,0.5 46.5,1.5 46.5,2.5C 45.5655,3.56764 45.2322,4.90097 45.5,6.5C 41.1617,6.62192 40.8284,6.95526 44.5,7.5C 44.5,9.16667 44.5,10.8333 44.5,12.5C 38.6861,11.1733 33.0194,9.33996 27.5,7C 25.4556,6.50167 24.1223,5.33501 23.5,3.5C 24.4293,2.68509 25.4293,1.85175 26.5,1C 25.944,0.617425 25.6107,0.117425 25.5,-0.5 Z"/></g>
<g><path style="opacity:1" fill="#3e3230" d="M 34.5,0.5 C 37.7094,1.29671 38.2094,2.96338 36,5.5C 33.676,4.2247 33.176,2.55803 34.5,0.5 Z"/></g>
<g><path style="opacity:1" fill="#392e5a" d="M 74.5,4.5 C 78.7012,3.26406 83.0345,3.26406 87.5,4.5C 87.5,5.16667 87.5,5.83333 87.5,6.5C 83.3431,4.93763 79.0097,4.27097 74.5,4.5 Z"/></g>
<g><path style="opacity:1" fill="#2459be" d="M 46.5,2.5 C 47.7072,3.18878 49.0406,3.35545 50.5,3C 51.7423,6.35666 52.5756,6.18999 53,2.5C 53.21,4.05814 53.71,5.39147 54.5,6.5C 54.9731,7.90632 55.9731,8.57298 57.5,8.5C 57.3893,9.11742 57.056,9.61742 56.5,10C 57.624,10.2492 58.624,10.7492 59.5,11.5C 57.3449,12.0014 55.6782,13.0014 54.5,14.5C 51.5176,14.0371 48.5176,13.7038 45.5,13.5C 45.1667,13.5 44.8333,13.5 44.5,13.5C 44.5,13.1667 44.5,12.8333 44.5,12.5C 44.5,10.8333 44.5,9.16667 44.5,7.5C 40.8284,6.95526 41.1617,6.62192 45.5,6.5C 45.2322,4.90097 45.5655,3.56764 46.5,2.5 Z"/></g>
<g><path style="opacity:1" fill="#075cc9" d="M 46.5,-0.5 C 50.5,-0.5 54.5,-0.5 58.5,-0.5C 61.688,1.69021 64.8546,4.02355 68,6.5C 70.277,5.88278 72.4437,5.21611 74.5,4.5C 79.0097,4.27097 83.3431,4.93763 87.5,6.5C 87.5,8.16667 87.5,9.83333 87.5,11.5C 86.1805,10.0582 84.5138,9.39151 82.5,9.5C 79.4467,9.11066 76.78,9.77733 74.5,11.5C 73.4675,12.9117 72.8008,14.5784 72.5,16.5C 72.5097,19.1569 72.5097,21.8236 72.5,24.5C 71.8333,23.8333 71.1667,23.1667 70.5,22.5C 66.5582,18.0267 61.5582,15.36 55.5,14.5C 55.1667,14.5 54.8333,14.5 54.5,14.5C 55.6782,13.0014 57.3449,12.0014 59.5,11.5C 58.624,10.7492 57.624,10.2492 56.5,10C 57.056,9.61742 57.3893,9.11742 57.5,8.5C 58.9997,6.49093 58.4997,5.1576 56,4.5C 54.9701,4.83611 54.4701,5.50278 54.5,6.5C 53.71,5.39147 53.21,4.05814 53,2.5C 52.5756,6.18999 51.7423,6.35666 50.5,3C 49.0406,3.35545 47.7072,3.18878 46.5,2.5C 46.5,1.5 46.5,0.5 46.5,-0.5 Z"/></g>
<g><path style="opacity:1" fill="#624f5a" d="M 57.5,8.5 C 55.9731,8.57298 54.9731,7.90632 54.5,6.5C 54.4701,5.50278 54.9701,4.83611 56,4.5C 58.4997,5.1576 58.9997,6.49093 57.5,8.5 Z"/></g>
<g><path style="opacity:1" fill="#e7a7a9" d="M 11.5,5.5 C 12.8897,6.89928 13.8897,8.56594 14.5,10.5C 12.856,11.3657 11.1893,11.8657 9.5,12C 10.1172,9.72301 10.7839,7.55634 11.5,5.5 Z"/></g>
<g><path style="opacity:1" fill="#f21a1e" d="M -0.5,-0.5 C 3.83333,-0.5 8.16667,-0.5 12.5,-0.5C 12.5,-0.166667 12.5,0.166667 12.5,0.5C 11.5489,1.91866 11.2155,3.58533 11.5,5.5C 10.7839,7.55634 10.1172,9.72301 9.5,12C 11.1893,11.8657 12.856,11.3657 14.5,10.5C 16.2327,11.0076 16.566,11.841 15.5,13C 12.4081,14.5459 9.40812,16.0459 6.5,17.5C 5.35089,17.2089 4.68423,16.3756 4.5,15C 5.60705,10.1412 6.44039,5.30786 7,0.5C 4.99597,6.86061 3.16263,13.1939 1.5,19.5C 3.64498,22.074 6.31165,23.9074 9.5,25C 8.13243,27.8044 7.13243,30.6377 6.5,33.5C 7.37928,28.999 5.87928,25.6657 2,23.5C 1.14825,24.5707 0.314913,25.5707 -0.5,26.5C -0.5,17.5 -0.5,8.5 -0.5,-0.5 Z"/></g>
<g><path style="opacity:1" fill="#f2b1b2" d="M 82.5,9.5 C 83.7663,13.4677 83.7663,17.4677 82.5,21.5C 79.4838,18.4797 76.8171,15.1464 74.5,11.5C 76.78,9.77733 79.4467,9.11066 82.5,9.5 Z"/></g>
<g><path style="opacity:1" fill="#f37a88" d="M 82.5,9.5 C 84.5138,9.39151 86.1805,10.0582 87.5,11.5C 87.5,15.8333 87.5,20.1667 87.5,24.5C 86.7784,24.9175 86.2784,25.5842 86,26.5C 84.3308,25.1537 83.1642,23.487 82.5,21.5C 83.7663,17.4677 83.7663,13.4677 82.5,9.5 Z"/></g>
<g><path style="opacity:1" fill="#86373c" d="M 12.5,0.5 C 12.5,1.5 12.5,2.5 12.5,3.5C 16.2161,4.6567 19.8828,4.6567 23.5,3.5C 24.1223,5.33501 25.4556,6.50167 27.5,7C 33.0194,9.33996 38.6861,11.1733 44.5,12.5C 44.5,12.8333 44.5,13.1667 44.5,13.5C 41.4822,15.5258 38.4822,17.5258 35.5,19.5C 31.4583,16.8428 27.4583,16.8428 23.5,19.5C 18.2733,21.1363 12.94,21.6363 7.5,21C 4.29418,20.0735 3.96084,18.9068 6.5,17.5C 9.40812,16.0459 12.4081,14.5459 15.5,13C 16.566,11.841 16.2327,11.0076 14.5,10.5C 13.8897,8.56594 12.8897,6.89928 11.5,5.5C 11.2155,3.58533 11.5489,1.91866 12.5,0.5 Z"/></g>
<g><path style="opacity:1" fill="#6c2329" d="M 55.5,14.5 C 61.5582,15.36 66.5582,18.0267 70.5,22.5C 67.7233,25.9778 66.8899,29.9778 68,34.5C 68.6259,32.0087 69.4593,32.0087 70.5,34.5C 71.086,34.2907 71.586,33.9574 72,33.5C 72.9533,36.4318 73.4533,39.4318 73.5,42.5C 71.6961,40.5327 69.6961,38.6993 67.5,37C 66.5632,36.3083 65.8966,36.475 65.5,37.5C 64.8333,37.5 64.5,37.1667 64.5,36.5C 64.5,36.1667 64.5,35.8333 64.5,35.5C 64.2924,33.0799 64.6258,30.7466 65.5,28.5C 64.4225,26.1498 62.7559,24.4831 60.5,23.5C 61.4345,22.4324 61.7678,21.099 61.5,19.5C 59.6096,19.2965 58.1096,19.9632 57,21.5C 55.7978,19.3225 55.2978,16.9892 55.5,14.5 Z"/></g>
<g><path style="opacity:1" fill="#3f060b" d="M 35.5,19.5 C 35.1667,20.5 34.5,21.1667 33.5,21.5C 30.1667,20.8333 26.8333,20.1667 23.5,19.5C 27.4583,16.8428 31.4583,16.8428 35.5,19.5 Z"/></g>
<g><path style="opacity:1" fill="#7e2e33" d="M 6.5,17.5 C 3.96084,18.9068 4.29418,20.0735 7.5,21C 12.94,21.6363 18.2733,21.1363 23.5,19.5C 26.8333,20.1667 30.1667,20.8333 33.5,21.5C 32.3065,22.2719 31.3065,23.2719 30.5,24.5C 30.4772,25.7471 29.8105,27.0804 28.5,28.5C 28.1667,29.1667 27.8333,29.8333 27.5,30.5C 26.9569,30.56 26.6236,30.8933 26.5,31.5C 27.6016,32.1757 28.6016,32.8423 29.5,33.5C 28.209,33.2627 27.209,33.596 26.5,34.5C 25.5,34.5 24.5,34.5 23.5,34.5C 23.4431,33.391 23.1098,32.391 22.5,31.5C 21.2345,29.502 19.5678,29.502 17.5,31.5C 14.8708,34.7177 13.2041,38.3843 12.5,42.5C 12.5,43.8333 12.5,45.1667 12.5,46.5C 10.9261,44.8984 10.2594,42.8984 10.5,40.5C 8.83333,40.5 7.16667,40.5 5.5,40.5C 4.90935,39.8485 4.24269,39.1818 3.5,38.5C 4.99365,37.0953 5.99365,35.4287 6.5,33.5C 7.13243,30.6377 8.13243,27.8044 9.5,25C 6.31165,23.9074 3.64498,22.074 1.5,19.5C 3.16263,13.1939 4.99597,6.86061 7,0.5C 6.44039,5.30786 5.60705,10.1412 4.5,15C 4.68423,16.3756 5.35089,17.2089 6.5,17.5 Z"/></g>
<g><path style="opacity:1" fill="#c06c6b" d="M 44.5,13.5 C 44.8333,13.5 45.1667,13.5 45.5,13.5C 44.6851,14.8366 43.5185,15.8366 42,16.5C 41.3828,17.4491 41.5494,18.2825 42.5,19C 45.9499,19.1751 49.2832,19.3418 52.5,19.5C 50.4559,21.2194 48.4559,22.8861 46.5,24.5C 41.1219,25.7296 35.7886,25.7296 30.5,24.5C 31.3065,23.2719 32.3065,22.2719 33.5,21.5C 34.5,21.1667 35.1667,20.5 35.5,19.5C 38.4822,17.5258 41.4822,15.5258 44.5,13.5 Z"/></g>
<g><path style="opacity:1" fill="#903b3f" d="M 45.5,13.5 C 48.5176,13.7038 51.5176,14.0371 54.5,14.5C 54.8333,14.5 55.1667,14.5 55.5,14.5C 55.2978,16.9892 55.7978,19.3225 57,21.5C 58.1096,19.9632 59.6096,19.2965 61.5,19.5C 61.7678,21.099 61.4345,22.4324 60.5,23.5C 58.3792,23.3253 56.3792,23.6586 54.5,24.5C 53.0979,26.6339 51.2645,28.3006 49,29.5C 48.1667,29.1667 47.3333,28.8333 46.5,28.5C 49.0182,26.8443 49.0182,25.5109 46.5,24.5C 48.4559,22.8861 50.4559,21.2194 52.5,19.5C 49.2832,19.3418 45.9499,19.1751 42.5,19C 41.5494,18.2825 41.3828,17.4491 42,16.5C 43.5185,15.8366 44.6851,14.8366 45.5,13.5 Z"/></g>
<g><path style="opacity:1" fill="#a64d4e" d="M 30.5,24.5 C 35.7886,25.7296 41.1219,25.7296 46.5,24.5C 49.0182,25.5109 49.0182,26.8443 46.5,28.5C 47.3333,28.8333 48.1667,29.1667 49,29.5C 51.2645,28.3006 53.0979,26.6339 54.5,24.5C 55.8484,25.6006 57.3484,26.6006 59,27.5C 59.3333,28.5 59.6667,29.5 60,30.5C 62.5525,27.8059 63.7192,28.4726 63.5,32.5C 59.5931,32.7261 55.9265,33.7261 52.5,35.5C 50.0483,35.0139 47.3817,35.0139 44.5,35.5C 44.8333,33.5 45.1667,31.5 45.5,29.5C 41.1667,29.5 36.8333,29.5 32.5,29.5C 31.1667,29.1667 29.8333,28.8333 28.5,28.5C 29.8105,27.0804 30.4772,25.7471 30.5,24.5 Z"/></g>
<g><path style="opacity:1" fill="#340c0f" d="M 60.5,23.5 C 62.7559,24.4831 64.4225,26.1498 65.5,28.5C 64.6258,30.7466 64.2924,33.0799 64.5,35.5C 59.9289,35.0537 55.5956,35.7203 51.5,37.5C 51.3284,36.5084 51.6618,35.8417 52.5,35.5C 55.9265,33.7261 59.5931,32.7261 63.5,32.5C 63.7192,28.4726 62.5525,27.8059 60,30.5C 59.6667,29.5 59.3333,28.5 59,27.5C 57.3484,26.6006 55.8484,25.6006 54.5,24.5C 56.3792,23.6586 58.3792,23.3253 60.5,23.5 Z"/></g>
<g><path style="opacity:1" fill="#0f0b0d" d="M 28.5,28.5 C 29.8333,28.8333 31.1667,29.1667 32.5,29.5C 34.8075,30.7633 36.1408,32.7633 36.5,35.5C 34.2282,32.5697 31.2282,30.903 27.5,30.5C 27.8333,29.8333 28.1667,29.1667 28.5,28.5 Z"/></g>
<g><path style="opacity:1" fill="#954043" d="M 70.5,22.5 C 71.1667,23.1667 71.8333,23.8333 72.5,24.5C 75.9979,35.4436 76.3313,46.4436 73.5,57.5C 72.5657,56.2275 71.899,54.7275 71.5,53C 73.1775,50.4534 73.8441,47.6201 73.5,44.5C 73.5,43.8333 73.5,43.1667 73.5,42.5C 73.4533,39.4318 72.9533,36.4318 72,33.5C 71.586,33.9574 71.086,34.2907 70.5,34.5C 69.4593,32.0087 68.6259,32.0087 68,34.5C 66.8899,29.9778 67.7233,25.9778 70.5,22.5 Z"/></g>
<g><path style="opacity:1" fill="#055fcd" d="M 74.5,11.5 C 76.8171,15.1464 79.4838,18.4797 82.5,21.5C 83.1642,23.487 84.3308,25.1537 86,26.5C 86.2784,25.5842 86.7784,24.9175 87.5,24.5C 87.5,36.5 87.5,48.5 87.5,60.5C 84.464,63.4639 82.1307,66.4639 80.5,69.5C 80.1357,66.1995 78.969,63.1995 77,60.5C 76.6924,61.3081 76.1924,61.9747 75.5,62.5C 74.8243,61.3984 74.1577,60.3984 73.5,59.5C 73.5,58.8333 73.5,58.1667 73.5,57.5C 76.3313,46.4436 75.9979,35.4436 72.5,24.5C 72.5097,21.8236 72.5097,19.1569 72.5,16.5C 72.8008,14.5784 73.4675,12.9117 74.5,11.5 Z"/></g>
<g><path style="opacity:1" fill="#f43034" d="M 6.5,33.5 C 5.99365,35.4287 4.99365,37.0953 3.5,38.5C 4.24269,39.1818 4.90935,39.8485 5.5,40.5C 6.56764,41.4345 7.90097,41.7678 9.5,41.5C 9.00735,46.6244 8.34069,51.291 7.5,55.5C 5.8639,54.2511 4.69724,52.5844 4,50.5C 3.18871,51.9597 2.35538,52.293 1.5,51.5C 1.36647,47.3586 1.6998,43.192 2.5,39C 2.16667,38.8333 1.83333,38.6667 1.5,38.5C 0.832624,41.6417 0.165957,44.6417 -0.5,47.5C -0.5,40.5 -0.5,33.5 -0.5,26.5C 0.314913,25.5707 1.14825,24.5707 2,23.5C 5.87928,25.6657 7.37928,28.999 6.5,33.5 Z"/></g>
<g><path style="opacity:1" fill="#f6d7d4" d="M 32.5,29.5 C 36.8333,29.5 41.1667,29.5 45.5,29.5C 45.1667,31.5 44.8333,33.5 44.5,35.5C 47.3817,35.0139 50.0483,35.0139 52.5,35.5C 51.6618,35.8417 51.3284,36.5084 51.5,37.5C 50.2485,39.0009 49.2485,40.6675 48.5,42.5C 46.8002,42.6261 45.3002,43.2927 44,44.5C 43.5,44.3333 43,44.1667 42.5,44C 43.3081,43.6924 43.9747,43.1924 44.5,42.5C 42.3633,41.9202 40.53,40.9202 39,39.5C 38.6264,41.4913 37.793,43.158 36.5,44.5C 36.5,43.5 36.5,42.5 36.5,41.5C 37.5729,39.6531 37.5729,37.6531 36.5,35.5C 36.1408,32.7633 34.8075,30.7633 32.5,29.5 Z"/></g>
<g><path style="opacity:1" fill="#a10921" d="M 26.5,34.5 C 27.209,33.596 28.209,33.2627 29.5,33.5C 33.2359,34.9047 35.5692,37.5713 36.5,41.5C 35.1667,41.5 33.8333,41.5 32.5,41.5C 32.7373,42.791 32.404,43.791 31.5,44.5C 31.1766,39.1605 28.8433,38.1605 24.5,41.5C 24.1667,41.5 23.8333,41.5 23.5,41.5C 25.1996,39.7901 26.5329,37.7901 27.5,35.5C 27.3764,34.8933 27.0431,34.56 26.5,34.5 Z"/></g>
<g><path style="opacity:1" fill="#ac83cd" d="M 27.5,30.5 C 31.2282,30.903 34.2282,32.5697 36.5,35.5C 37.5729,37.6531 37.5729,39.6531 36.5,41.5C 35.5692,37.5713 33.2359,34.9047 29.5,33.5C 28.6016,32.8423 27.6016,32.1757 26.5,31.5C 26.6236,30.8933 26.9569,30.56 27.5,30.5 Z"/></g>
<g><path style="opacity:1" fill="#0e0608" d="M 22.5,31.5 C 17.6557,33.5013 14.989,37.1679 14.5,42.5C 14.5,42.8333 14.5,43.1667 14.5,43.5C 13.8333,43.1667 13.1667,42.8333 12.5,42.5C 13.2041,38.3843 14.8708,34.7177 17.5,31.5C 19.5678,29.502 21.2345,29.502 22.5,31.5 Z"/></g>
<g><path style="opacity:1" fill="#ecdbdb" d="M 23.5,34.5 C 24.5,34.5 25.5,34.5 26.5,34.5C 27.0431,34.56 27.3764,34.8933 27.5,35.5C 26.5329,37.7901 25.1996,39.7901 23.5,41.5C 22.7978,42.1157 21.7978,42.1157 20.5,41.5C 19.9093,38.3247 20.9093,35.9913 23.5,34.5 Z"/></g>
<g><path style="opacity:1" fill="#b08bd4" d="M 22.5,31.5 C 23.1098,32.391 23.4431,33.391 23.5,34.5C 20.9093,35.9913 19.9093,38.3247 20.5,41.5C 19.0335,38.7417 18.3668,39.075 18.5,42.5C 17.1667,42.5 15.8333,42.5 14.5,42.5C 14.989,37.1679 17.6557,33.5013 22.5,31.5 Z"/></g>
<g><path style="opacity:1" fill="#a485db" d="M 64.5,35.5 C 64.5,35.8333 64.5,36.1667 64.5,36.5C 62.2646,36.2053 60.2646,36.5386 58.5,37.5C 55.6724,38.9957 54.0057,41.329 53.5,44.5C 52.8333,44.5 52.5,44.8333 52.5,45.5C 51.1667,45.5 49.8333,45.5 48.5,45.5C 48.5,44.5 48.5,43.5 48.5,42.5C 49.2485,40.6675 50.2485,39.0009 51.5,37.5C 55.5956,35.7203 59.9289,35.0537 64.5,35.5 Z"/></g>
<g><path style="opacity:1" fill="#d5d7e8" d="M 58.5,37.5 C 60.69,38.7476 61.0234,40.4143 59.5,42.5C 59.5,43.1667 59.1667,43.5 58.5,43.5C 57.4693,44.355 56.3026,45.0217 55,45.5C 54.2352,45.4301 53.7352,45.0967 53.5,44.5C 54.0057,41.329 55.6724,38.9957 58.5,37.5 Z"/></g>
<g><path style="opacity:1" fill="#480215" d="M 31.5,44.5 C 31.516,46.4841 30.516,47.4841 28.5,47.5C 26.5567,47.2133 25.2233,46.2133 24.5,44.5C 24.5,43.5 24.5,42.5 24.5,41.5C 28.8433,38.1605 31.1766,39.1605 31.5,44.5 Z"/></g>
<g><path style="opacity:1" fill="#9d77ba" d="M 73.5,42.5 C 73.5,43.1667 73.5,43.8333 73.5,44.5C 72.603,45.5981 71.7697,45.5981 71,44.5C 70.7216,45.4158 70.2216,46.0825 69.5,46.5C 69.6567,45.1266 69.49,43.7932 69,42.5C 67.3506,41.1155 66.1839,39.4488 65.5,37.5C 65.8966,36.475 66.5632,36.3083 67.5,37C 69.6961,38.6993 71.6961,40.5327 73.5,42.5 Z"/></g>
<g><path style="opacity:1" fill="#1e29c1" d="M 58.5,37.5 C 60.2646,36.5386 62.2646,36.2053 64.5,36.5C 64.5,37.1667 64.8333,37.5 65.5,37.5C 66.1839,39.4488 67.3506,41.1155 69,42.5C 69.49,43.7932 69.6567,45.1266 69.5,46.5C 69.6621,48.5273 69.4955,50.5273 69,52.5C 68.5776,54.4257 67.4109,55.4257 65.5,55.5C 66.8714,53.7408 67.8714,51.7408 68.5,49.5C 67.4231,48.2949 66.0898,47.6282 64.5,47.5C 64.3683,44.2033 62.7016,42.5367 59.5,42.5C 61.0234,40.4143 60.69,38.7476 58.5,37.5 Z"/></g>
<g><path style="opacity:1" fill="#af141c" d="M 5.5,40.5 C 7.16667,40.5 8.83333,40.5 10.5,40.5C 10.2594,42.8984 10.9261,44.8984 12.5,46.5C 11.8991,48.578 11.5657,50.7446 11.5,53C 12.1239,56.8927 12.6239,60.726 13,64.5C 11.8362,62.3512 10.6695,60.1846 9.5,58C 8.20677,57.51 6.87344,57.3433 5.5,57.5C 6.16667,56.8333 6.83333,56.1667 7.5,55.5C 8.34069,51.291 9.00735,46.6244 9.5,41.5C 7.90097,41.7678 6.56764,41.4345 5.5,40.5 Z"/></g>
<g><path style="opacity:1" fill="#e71e28" d="M 20.5,41.5 C 21.7978,42.1157 22.7978,42.1157 23.5,41.5C 23.8333,41.5 24.1667,41.5 24.5,41.5C 24.5,42.5 24.5,43.5 24.5,44.5C 22.6536,44.2222 21.3202,44.8888 20.5,46.5C 21.1744,48.1955 21.8411,49.8621 22.5,51.5C 19.3294,49.4811 17.9961,46.4811 18.5,42.5C 18.3668,39.075 19.0335,38.7417 20.5,41.5 Z"/></g>
<g><path style="opacity:1" fill="#070621" d="M 59.5,42.5 C 62.7016,42.5367 64.3683,44.2033 64.5,47.5C 62.1667,51.5 59.8333,51.5 57.5,47.5C 57.8333,46.1667 58.1667,44.8333 58.5,43.5C 59.1667,43.5 59.5,43.1667 59.5,42.5 Z"/></g>
<g><path style="opacity:1" fill="#ef3335" d="M 7.5,55.5 C 6.83333,56.1667 6.16667,56.8333 5.5,57.5C 5.80686,60.2799 6.80686,62.7799 8.5,65C 6.534,66.4647 5.20067,68.2981 4.5,70.5C 4.26515,67.1968 2.59848,64.8635 -0.5,63.5C -0.5,58.1667 -0.5,52.8333 -0.5,47.5C 0.165957,44.6417 0.832624,41.6417 1.5,38.5C 1.83333,38.6667 2.16667,38.8333 2.5,39C 1.6998,43.192 1.36647,47.3586 1.5,51.5C 2.35538,52.293 3.18871,51.9597 4,50.5C 4.69724,52.5844 5.8639,54.2511 7.5,55.5 Z"/></g>
<g><path style="opacity:1" fill="#f86761" d="M 36.5,41.5 C 36.5,42.5 36.5,43.5 36.5,44.5C 36.9291,51.7392 33.5958,54.7392 26.5,53.5C 24.6203,53.7709 23.287,53.1042 22.5,51.5C 21.8411,49.8621 21.1744,48.1955 20.5,46.5C 21.3202,44.8888 22.6536,44.2222 24.5,44.5C 25.2233,46.2133 26.5567,47.2133 28.5,47.5C 30.516,47.4841 31.516,46.4841 31.5,44.5C 32.404,43.791 32.7373,42.791 32.5,41.5C 33.8333,41.5 35.1667,41.5 36.5,41.5 Z"/></g>
<g><path style="opacity:1" fill="#f8d8d2" d="M 53.5,54.5 C 54.1667,54.5 54.5,54.8333 54.5,55.5C 53.2617,55.81 53.2617,56.31 54.5,57C 51.4557,57.3589 51.1224,58.0255 53.5,59C 51.6755,61.0815 50.0089,60.9148 48.5,58.5C 47.8933,58.6236 47.56,58.9569 47.5,59.5C 47.44,60.0431 47.1067,60.3764 46.5,60.5C 43.1792,59.7402 39.8459,59.0736 36.5,58.5C 38.2747,56.4158 40.6081,55.2491 43.5,55C 43.1667,54.6667 42.8333,54.3333 42.5,54C 44.612,53.0943 45.4453,51.5943 45,49.5C 42.9759,51.3581 40.8092,53.0248 38.5,54.5C 36.2633,51.969 36.2633,49.3023 38.5,46.5C 41.6925,47.866 45.0258,48.6993 48.5,49C 49.8505,51.2645 51.5172,53.0978 53.5,54.5 Z"/></g>
<g><path style="opacity:1" fill="#344feb" d="M 58.5,43.5 C 58.1667,44.8333 57.8333,46.1667 57.5,47.5C 54.0271,49.5628 53.6938,52.0628 56.5,55C 59.4816,55.498 62.4816,55.6646 65.5,55.5C 61.9351,56.7866 58.2684,56.7866 54.5,55.5C 54.5,54.8333 54.1667,54.5 53.5,54.5C 52.8413,51.5448 52.5079,48.5448 52.5,45.5C 52.5,44.8333 52.8333,44.5 53.5,44.5C 53.7352,45.0967 54.2352,45.4301 55,45.5C 56.3026,45.0217 57.4693,44.355 58.5,43.5 Z"/></g>
<g><path style="opacity:1" fill="#73caf9" d="M 57.5,47.5 C 59.8333,51.5 62.1667,51.5 64.5,47.5C 66.0898,47.6282 67.4231,48.2949 68.5,49.5C 67.8714,51.7408 66.8714,53.7408 65.5,55.5C 62.4816,55.6646 59.4816,55.498 56.5,55C 53.6938,52.0628 54.0271,49.5628 57.5,47.5 Z"/></g>
<g><path style="opacity:1" fill="#facfcc" d="M 14.5,42.5 C 15.8333,42.5 17.1667,42.5 18.5,42.5C 17.9961,46.4811 19.3294,49.4811 22.5,51.5C 23.287,53.1042 24.6203,53.7709 26.5,53.5C 28.9845,54.9641 28.9845,56.6308 26.5,58.5C 24.057,60.0553 21.3903,60.722 18.5,60.5C 18.3295,56.4658 16.4962,55.1324 13,56.5C 12.2712,51.9988 12.7712,47.6654 14.5,43.5C 14.5,43.1667 14.5,42.8333 14.5,42.5 Z"/></g>
<g><path style="opacity:1" fill="#fbe1db" d="M 48.5,42.5 C 48.5,43.5 48.5,44.5 48.5,45.5C 49.8333,45.5 51.1667,45.5 52.5,45.5C 52.5079,48.5448 52.8413,51.5448 53.5,54.5C 51.5172,53.0978 49.8505,51.2645 48.5,49C 45.0258,48.6993 41.6925,47.866 38.5,46.5C 36.2633,49.3023 36.2633,51.969 38.5,54.5C 40.8092,53.0248 42.9759,51.3581 45,49.5C 45.4453,51.5943 44.612,53.0943 42.5,54C 42.8333,54.3333 43.1667,54.6667 43.5,55C 40.6081,55.2491 38.2747,56.4158 36.5,58.5C 35.242,62.1337 35.242,65.8004 36.5,69.5C 37.1667,70.5 37.8333,71.5 38.5,72.5C 36.1803,71.2758 33.847,69.9425 31.5,68.5C 30.3527,68.8178 29.5194,69.4844 29,70.5C 28.296,68.273 27.1294,67.9397 25.5,69.5C 25.7778,67.6536 25.1112,66.3202 23.5,65.5C 21.677,66.7472 19.677,67.4139 17.5,67.5C 17.9926,65.1944 18.3259,62.861 18.5,60.5C 21.3903,60.722 24.057,60.0553 26.5,58.5C 28.9845,56.6308 28.9845,54.9641 26.5,53.5C 33.5958,54.7392 36.9291,51.7392 36.5,44.5C 37.793,43.158 38.6264,41.4913 39,39.5C 40.53,40.9202 42.3633,41.9202 44.5,42.5C 43.9747,43.1924 43.3081,43.6924 42.5,44C 43,44.1667 43.5,44.3333 44,44.5C 45.3002,43.2927 46.8002,42.6261 48.5,42.5 Z"/></g>
<g><path style="opacity:1" fill="#f7cccc" d="M 73.5,44.5 C 73.8441,47.6201 73.1775,50.4534 71.5,53C 71.899,54.7275 72.5657,56.2275 73.5,57.5C 73.5,58.1667 73.5,58.8333 73.5,59.5C 71.303,63.2377 68.6363,66.571 65.5,69.5C 67.3396,66.7183 68.3396,63.885 68.5,61C 65.7182,59.4524 63.0515,59.4524 60.5,61C 61.6721,61.4186 62.6721,62.0853 63.5,63C 61.325,62.951 59.1583,62.451 57,61.5C 54.9011,62.2865 52.7345,62.6199 50.5,62.5C 50.5,63.5 50.5,64.5 50.5,65.5C 50.6716,66.4916 50.3382,67.1583 49.5,67.5C 49.5,67.1667 49.5,66.8333 49.5,66.5C 49.8294,63.7718 49.1628,61.4385 47.5,59.5C 47.56,58.9569 47.8933,58.6236 48.5,58.5C 50.0089,60.9148 51.6755,61.0815 53.5,59C 51.1224,58.0255 51.4557,57.3589 54.5,57C 53.2617,56.31 53.2617,55.81 54.5,55.5C 58.2684,56.7866 61.9351,56.7866 65.5,55.5C 67.4109,55.4257 68.5776,54.4257 69,52.5C 69.4955,50.5273 69.6621,48.5273 69.5,46.5C 70.2216,46.0825 70.7216,45.4158 71,44.5C 71.7697,45.5981 72.603,45.5981 73.5,44.5 Z"/></g>
<g><path style="opacity:1" fill="#dfb9b5" d="M 12.5,42.5 C 13.1667,42.8333 13.8333,43.1667 14.5,43.5C 12.7712,47.6654 12.2712,51.9988 13,56.5C 16.4962,55.1324 18.3295,56.4658 18.5,60.5C 18.3259,62.861 17.9926,65.1944 17.5,67.5C 16.9262,63.8355 16.0928,60.1688 15,56.5C 14.502,59.4816 14.3354,62.4816 14.5,65.5C 13.0695,65.5792 11.7362,65.2458 10.5,64.5C 10.0843,67.0304 11.0843,69.1971 13.5,71C 14.8333,71 16.1667,71 17.5,71C 14.545,72.4482 12.545,74.6149 11.5,77.5C 10.1667,77.1667 8.83333,76.8333 7.5,76.5C 3.8036,75.6248 2.8036,73.6248 4.5,70.5C 5.20067,68.2981 6.534,66.4647 8.5,65C 6.80686,62.7799 5.80686,60.2799 5.5,57.5C 6.87344,57.3433 8.20677,57.51 9.5,58C 10.6695,60.1846 11.8362,62.3512 13,64.5C 12.6239,60.726 12.1239,56.8927 11.5,53C 11.5657,50.7446 11.8991,48.578 12.5,46.5C 12.5,45.1667 12.5,43.8333 12.5,42.5 Z"/></g>
<g><path style="opacity:1" fill="#f94e5e" d="M 36.5,58.5 C 39.8459,59.0736 43.1792,59.7402 46.5,60.5C 47.1067,60.3764 47.44,60.0431 47.5,59.5C 49.1628,61.4385 49.8294,63.7718 49.5,66.5C 44.1468,63.3029 39.8135,64.3029 36.5,69.5C 35.242,65.8004 35.242,62.1337 36.5,58.5 Z"/></g>
<g><path style="opacity:1" fill="#0d60d0" d="M 73.5,59.5 C 74.1577,60.3984 74.8243,61.3984 75.5,62.5C 76.1924,61.9747 76.6924,61.3081 77,60.5C 78.969,63.1995 80.1357,66.1995 80.5,69.5C 77.538,69.1167 76.538,70.1167 77.5,72.5C 75.5986,74.0063 73.9319,75.6729 72.5,77.5C 71.119,75.7259 71.4523,74.2259 73.5,73C 72,71.8333 70.5,70.6667 69,69.5C 67.0858,70.676 67.2524,71.676 69.5,72.5C 67.6552,73.3946 66.3218,72.7279 65.5,70.5C 65.5,70.1667 65.5,69.8333 65.5,69.5C 68.6363,66.571 71.303,63.2377 73.5,59.5 Z"/></g>
<g><path style="opacity:1" fill="#fcd7d2" d="M 65.5,69.5 C 65.5,69.8333 65.5,70.1667 65.5,70.5C 65.1667,70.5 64.8333,70.5 64.5,70.5C 59.904,69.1013 55.2374,67.4346 50.5,65.5C 50.5,64.5 50.5,63.5 50.5,62.5C 52.7345,62.6199 54.9011,62.2865 57,61.5C 59.1583,62.451 61.325,62.951 63.5,63C 62.6721,62.0853 61.6721,61.4186 60.5,61C 63.0515,59.4524 65.7182,59.4524 68.5,61C 68.3396,63.885 67.3396,66.7183 65.5,69.5 Z"/></g>
<g><path style="opacity:1" fill="#f89a9c" d="M 49.5,66.5 C 49.5,66.8333 49.5,67.1667 49.5,67.5C 47.6909,73.6488 44.0242,75.3155 38.5,72.5C 37.8333,71.5 37.1667,70.5 36.5,69.5C 39.8135,64.3029 44.1468,63.3029 49.5,66.5 Z"/></g>
<g><path style="opacity:1" fill="#efd8d3" d="M 17.5,67.5 C 19.677,67.4139 21.677,66.7472 23.5,65.5C 25.1112,66.3202 25.7778,67.6536 25.5,69.5C 25.1667,70.1667 24.8333,70.8333 24.5,71.5C 22.5956,71.7376 21.2623,72.7376 20.5,74.5C 18.0443,76.8676 15.0443,77.8676 11.5,77.5C 12.545,74.6149 14.545,72.4482 17.5,71C 16.1667,71 14.8333,71 13.5,71C 11.0843,69.1971 10.0843,67.0304 10.5,64.5C 11.7362,65.2458 13.0695,65.5792 14.5,65.5C 14.3354,62.4816 14.502,59.4816 15,56.5C 16.0928,60.1688 16.9262,63.8355 17.5,67.5 Z"/></g>
<g><path style="opacity:1" fill="#f7dfd9" d="M 50.5,65.5 C 55.2374,67.4346 59.904,69.1013 64.5,70.5C 62.7656,73.2003 60.4323,75.2003 57.5,76.5C 54.1667,76.8333 50.8333,77.1667 47.5,77.5C 45.1667,77.5 42.8333,77.5 40.5,77.5C 34.5705,76.86 29.2372,74.86 24.5,71.5C 24.8333,70.8333 25.1667,70.1667 25.5,69.5C 27.1294,67.9397 28.296,68.273 29,70.5C 29.5194,69.4844 30.3527,68.8178 31.5,68.5C 33.847,69.9425 36.1803,71.2758 38.5,72.5C 44.0242,75.3155 47.6909,73.6488 49.5,67.5C 50.3382,67.1583 50.6716,66.4916 50.5,65.5 Z"/></g>
<g><path style="opacity:1" fill="#0760ce" d="M 72.5,77.5 C 69.6122,76.6734 67.9455,78.0068 67.5,81.5C 63.355,79.7465 59.6884,80.5799 56.5,84C 52.1679,84.5833 47.8346,85.0833 43.5,85.5C 43.5,84.5 43.5,83.5 43.5,82.5C 44.9952,82.0113 46.3285,81.3446 47.5,80.5C 51.2971,80.1277 54.6305,78.7943 57.5,76.5C 60.4323,75.2003 62.7656,73.2003 64.5,70.5C 64.8333,70.5 65.1667,70.5 65.5,70.5C 66.3218,72.7279 67.6552,73.3946 69.5,72.5C 67.2524,71.676 67.0858,70.676 69,69.5C 70.5,70.6667 72,71.8333 73.5,73C 71.4523,74.2259 71.119,75.7259 72.5,77.5 Z"/></g>
<g><path style="opacity:1" fill="#970e13" d="M 24.5,71.5 C 29.2372,74.86 34.5705,76.86 40.5,77.5C 40.5,79.1667 40.5,80.8333 40.5,82.5C 40.1667,82.5 39.8333,82.5 39.5,82.5C 34.9636,78.7258 29.9636,76.3925 24.5,75.5C 25.0318,77.7411 26.3651,79.2411 28.5,80C 27.3333,80.5 26.5,81.3333 26,82.5C 25.7216,81.5842 25.2216,80.9175 24.5,80.5C 23.6586,78.6208 23.3253,76.6208 23.5,74.5C 22.5,74.5 21.5,74.5 20.5,74.5C 21.2623,72.7376 22.5956,71.7376 24.5,71.5 Z"/></g>
<g><path style="opacity:1" fill="#0e0f84" d="M 57.5,76.5 C 54.6305,78.7943 51.2971,80.1277 47.5,80.5C 47.5,79.5 47.5,78.5 47.5,77.5C 50.8333,77.1667 54.1667,76.8333 57.5,76.5 Z"/></g>
<g><path style="opacity:1" fill="#1561bf" d="M 87.5,66.5 C 87.5,73.5 87.5,80.5 87.5,87.5C 78.5,87.5 69.5,87.5 60.5,87.5C 60.1961,86.8501 59.8627,86.1835 59.5,85.5C 70.9418,82.1243 80.2751,75.791 87.5,66.5 Z"/></g>
<g><path style="opacity:1" fill="#e35b5a" d="M 40.5,77.5 C 42.8333,77.5 45.1667,77.5 47.5,77.5C 47.5,78.5 47.5,79.5 47.5,80.5C 46.3285,81.3446 44.9952,82.0113 43.5,82.5C 42.5,82.5 41.5,82.5 40.5,82.5C 40.5,80.8333 40.5,79.1667 40.5,77.5 Z"/></g>
<g><path style="opacity:1" fill="#184ebd" d="M 87.5,60.5 C 87.5,62.5 87.5,64.5 87.5,66.5C 80.2751,75.791 70.9418,82.1243 59.5,85.5C 59.8627,86.1835 60.1961,86.8501 60.5,87.5C 52.8333,87.5 45.1667,87.5 37.5,87.5C 38.968,86.2209 39.6347,84.5542 39.5,82.5C 39.8333,82.5 40.1667,82.5 40.5,82.5C 41.5,82.5 42.5,82.5 43.5,82.5C 43.5,83.5 43.5,84.5 43.5,85.5C 47.8346,85.0833 52.1679,84.5833 56.5,84C 59.6884,80.5799 63.355,79.7465 67.5,81.5C 67.9455,78.0068 69.6122,76.6734 72.5,77.5C 73.9319,75.6729 75.5986,74.0063 77.5,72.5C 76.538,70.1167 77.538,69.1167 80.5,69.5C 82.1307,66.4639 84.464,63.4639 87.5,60.5 Z"/></g>
<g><path style="opacity:1" fill="#f22123" d="M 39.5,82.5 C 39.6347,84.5542 38.968,86.2209 37.5,87.5C 31.8333,87.5 26.1667,87.5 20.5,87.5C 19.573,85.7175 18.7397,84.0508 18,82.5C 18.3333,82.1667 18.6667,81.8333 19,81.5C 21.2609,84.0307 23.0943,83.6974 24.5,80.5C 25.2216,80.9175 25.7216,81.5842 26,82.5C 26.5,81.3333 27.3333,80.5 28.5,80C 26.3651,79.2411 25.0318,77.7411 24.5,75.5C 29.9636,76.3925 34.9636,78.7258 39.5,82.5 Z"/></g>
<g><path style="opacity:1" fill="#f60d14" d="M -0.5,63.5 C 2.59848,64.8635 4.26515,67.1968 4.5,70.5C 2.8036,73.6248 3.8036,75.6248 7.5,76.5C 7.27558,80.1788 6.94225,83.8455 6.5,87.5C 4.16667,87.5 1.83333,87.5 -0.5,87.5C -0.5,79.5 -0.5,71.5 -0.5,63.5 Z"/></g>
<g><path style="opacity:1" fill="#f03135" d="M 20.5,74.5 C 21.5,74.5 22.5,74.5 23.5,74.5C 23.3253,76.6208 23.6586,78.6208 24.5,80.5C 23.0943,83.6974 21.2609,84.0307 19,81.5C 18.6667,81.8333 18.3333,82.1667 18,82.5C 18.7397,84.0508 19.573,85.7175 20.5,87.5C 15.8333,87.5 11.1667,87.5 6.5,87.5C 6.94225,83.8455 7.27558,80.1788 7.5,76.5C 8.83333,76.8333 10.1667,77.1667 11.5,77.5C 15.0443,77.8676 18.0443,76.8676 20.5,74.5 Z"/></g>
</svg>
