<svg width="412" height="94" viewBox="0 0 412 94" fill="none" xmlns="http://www.w3.org/2000/svg">
<path fill-rule="evenodd" clip-rule="evenodd" d="M397.013 26.2026H374.582V0H344.607V93.6455H374.532V56.1772H382.025V93.6455L412 93.6405V41.205L397.013 26.2026ZM29.9746 26.2028L29.9646 0.00518484H0V78.6584L14.9823 93.6406L56.1772 93.6457V63.6711H29.9746V56.1774H56.1772V26.2028H29.9746ZM138.557 26.2026V63.6709H131.063V26.2026H101.139V63.6709H93.6455V26.2026H63.6709V78.6582L78.6532 93.6405L168.532 93.6455V26.2026H138.557ZM206 26.2026H176.025L176.035 93.6405H206V26.2026ZM176.035 0.00518484H206V18.7594H176.025L176.035 0.00518484ZM277.165 41.205L292.152 26.2026H337.114V56.1772H307.139V63.6709H337.114V93.6455L292.147 93.6405L277.165 78.6582V41.205ZM243.453 0.0050296L243.468 26.2026H269.671V56.1772H243.468V63.6709L269.671 63.6759V93.6405H228.471L213.494 78.6582V0L243.453 0.0050296Z" fill="#9146FF"/>
</svg>
