<?xml version="1.0" encoding="UTF-8"?>
<!DOCTYPE svg PUBLIC "-//W3C//DTD SVG 1.1//EN" "http://www.w3.org/Graphics/SVG/1.1/DTD/svg11.dtd">
<svg xmlns="http://www.w3.org/2000/svg" version="1.1" width="300px" height="300px" style="shape-rendering:geometricPrecision; text-rendering:geometricPrecision; image-rendering:optimizeQuality; fill-rule:evenodd; clip-rule:evenodd" xmlns:xlink="http://www.w3.org/1999/xlink">
<g><path style="opacity:0.991" fill="#fefefe" d="M 132.5,-0.5 C 143.833,-0.5 155.167,-0.5 166.5,-0.5C 223.266,7.47323 263.766,37.4732 288,89.5C 293.582,103.503 297.415,117.837 299.5,132.5C 299.5,144.167 299.5,155.833 299.5,167.5C 289.033,230.47 253.699,272.637 193.5,294C 184.765,296.172 176.098,298.005 167.5,299.5C 155.5,299.5 143.5,299.5 131.5,299.5C 73.3792,290.222 32.5459,258.555 9,204.5C 4.7047,192.315 1.53803,179.982 -0.5,167.5C -0.5,155.5 -0.5,143.5 -0.5,131.5C 8.36757,74.4691 39.0342,33.9691 91.5,10C 104.943,5.05675 118.61,1.55675 132.5,-0.5 Z"/></g>
<g><path style="opacity:1" fill="#f0fefd" d="M 211.5,66.5 C 209.784,66.3713 208.117,66.038 206.5,65.5C 205.167,65.5 203.833,65.5 202.5,65.5C 202.167,65.5 201.833,65.5 201.5,65.5C 197.267,64.2057 192.934,64.2057 188.5,65.5C 185.318,65.584 182.985,66.9173 181.5,69.5C 180.833,69.8333 180.167,70.1667 179.5,70.5C 180.107,67.9245 181.274,65.5912 183,63.5C 184.399,63.5012 185.899,63.8346 187.5,64.5C 189.874,62.6221 192.374,60.9554 195,59.5C 199.834,61.114 204.668,62.7807 209.5,64.5C 210.243,65.1818 210.909,65.8485 211.5,66.5 Z"/></g>
<g><path style="opacity:1" fill="#b2f4f1" d="M 201.5,65.5 C 197.629,65.185 193.962,65.5184 190.5,66.5C 189.833,66.5 189.167,66.5 188.5,66.5C 188.5,66.1667 188.5,65.8333 188.5,65.5C 192.934,64.2057 197.267,64.2057 201.5,65.5 Z"/></g>
<g><path style="opacity:1" fill="#e1fefc" d="M 188.5,65.5 C 188.5,65.8333 188.5,66.1667 188.5,66.5C 186.847,66.6596 185.514,67.3263 184.5,68.5C 183.391,68.5569 182.391,68.8902 181.5,69.5C 182.985,66.9173 185.318,65.584 188.5,65.5 Z"/></g>
<g><path style="opacity:1" fill="#b8f7f3" d="M 202.5,65.5 C 203.833,65.5 205.167,65.5 206.5,65.5C 207.167,66.5 207.833,67.5 208.5,68.5C 207.833,68.5 207.167,68.5 206.5,68.5C 206.027,67.0937 205.027,66.427 203.5,66.5C 202.833,66.5 202.5,66.1667 202.5,65.5 Z"/></g>
<g><path style="opacity:1" fill="#74e3da" d="M 203.5,66.5 C 205.027,66.427 206.027,67.0937 206.5,68.5C 204.973,68.573 203.973,67.9063 203.5,66.5 Z"/></g>
<g><path style="opacity:1" fill="#9dece5" d="M 208.5,69.5 C 208.5,69.1667 208.5,68.8333 208.5,68.5C 210.062,68.7329 211.395,69.3995 212.5,70.5C 212.5,70.8333 212.5,71.1667 212.5,71.5C 210.938,71.2671 209.605,70.6005 208.5,69.5 Z"/></g>
<g><path style="opacity:1" fill="#ecfdfe" d="M 88.5,71.5 C 92.9811,70.3516 97.6478,70.1849 102.5,71C 103.942,71.3768 104.942,72.2101 105.5,73.5C 99.9895,71.7897 94.3228,71.123 88.5,71.5 Z"/></g>
<g><path style="opacity:1" fill="#cafaf8" d="M 212.5,71.5 C 212.5,71.1667 212.5,70.8333 212.5,70.5C 215.167,71.1667 216.833,72.8333 217.5,75.5C 215.833,74.1667 214.167,72.8333 212.5,71.5 Z"/></g>
<g><path style="opacity:1" fill="#ccfbfb" d="M 88.5,71.5 C 94.3228,71.123 99.9895,71.7897 105.5,73.5C 106.167,74.1667 106.833,74.8333 107.5,75.5C 106.833,75.5 106.167,75.5 105.5,75.5C 104.167,75.1667 102.833,74.8333 101.5,74.5C 101.158,73.6618 100.492,73.3284 99.5,73.5C 98.036,72.8401 96.3693,72.5068 94.5,72.5C 91.5143,72.3817 88.8476,73.0483 86.5,74.5C 85.8333,74.5 85.1667,74.5 84.5,74.5C 84.5,74.1667 84.5,73.8333 84.5,73.5C 85.9952,73.0113 87.3285,72.3446 88.5,71.5 Z"/></g>
<g><path style="opacity:1" fill="#87eae2" d="M 188.5,66.5 C 189.167,66.5 189.833,66.5 190.5,66.5C 189.833,67.1667 189.167,67.8333 188.5,68.5C 185.357,70.2417 182.357,72.2417 179.5,74.5C 180.45,71.8851 182.117,69.8851 184.5,68.5C 185.514,67.3263 186.847,66.6596 188.5,66.5 Z"/></g>
<g><path style="opacity:1" fill="#e6fdfd" d="M 206.5,65.5 C 208.117,66.038 209.784,66.3713 211.5,66.5C 215.498,69.4428 218.831,73.1094 221.5,77.5C 222.348,79.4086 222.682,81.4086 222.5,83.5C 221.857,81.9236 220.857,80.5903 219.5,79.5C 219.267,77.9382 218.6,76.6049 217.5,75.5C 216.833,72.8333 215.167,71.1667 212.5,70.5C 211.395,69.3995 210.062,68.7329 208.5,68.5C 207.833,67.5 207.167,66.5 206.5,65.5 Z"/></g>
<g><path style="opacity:1" fill="#a3f2f1" d="M 99.5,73.5 C 95.1311,73.4672 90.7978,73.8005 86.5,74.5C 88.8476,73.0483 91.5143,72.3817 94.5,72.5C 96.3693,72.5068 98.036,72.8401 99.5,73.5 Z"/></g>
<g><path style="opacity:1" fill="#eafdfd" d="M 105.5,73.5 C 107.621,73.3253 109.621,73.6586 111.5,74.5C 112.242,76.9798 113.242,79.3131 114.5,81.5C 113.833,81.1667 113.167,80.8333 112.5,80.5C 111.833,79.5 111.167,78.5 110.5,77.5C 110.027,76.0937 109.027,75.427 107.5,75.5C 106.833,74.8333 106.167,74.1667 105.5,73.5 Z"/></g>
<g><path style="opacity:1" fill="#9aeff0" d="M 84.5,74.5 C 85.1667,74.5 85.8333,74.5 86.5,74.5C 86.1667,75.5 85.5,76.1667 84.5,76.5C 84.1667,76.5 83.8333,76.5 83.5,76.5C 83.8333,75.8333 84.1667,75.1667 84.5,74.5 Z"/></g>
<g><path style="opacity:1" fill="#fafcf7" d="M 123.5,89.5 C 121.143,88.1394 119.476,86.1394 118.5,83.5C 117.378,82.3698 116.044,81.7031 114.5,81.5C 113.242,79.3131 112.242,76.9798 111.5,74.5C 112.601,73.4017 113.934,73.235 115.5,74C 120.203,78.1802 122.87,83.3469 123.5,89.5 Z"/></g>
<g><path style="opacity:1" fill="#97f2f3" d="M 105.5,75.5 C 106.167,75.5 106.833,75.5 107.5,75.5C 107.833,76.1667 108.167,76.8333 108.5,77.5C 107.833,77.5 107.167,77.5 106.5,77.5C 106.167,76.8333 105.833,76.1667 105.5,75.5 Z"/></g>
<g><path style="opacity:1" fill="#cdfdfd" d="M 107.5,75.5 C 109.027,75.427 110.027,76.0937 110.5,77.5C 109.833,77.5 109.167,77.5 108.5,77.5C 108.167,76.8333 107.833,76.1667 107.5,75.5 Z"/></g>
<g><path style="opacity:1" fill="#2bd9d3" d="M 201.5,65.5 C 201.833,65.5 202.167,65.5 202.5,65.5C 202.5,66.1667 202.833,66.5 203.5,66.5C 203.973,67.9063 204.973,68.573 206.5,68.5C 207.167,68.5 207.833,68.5 208.5,68.5C 208.5,68.8333 208.5,69.1667 208.5,69.5C 206.901,69.2322 205.568,69.5655 204.5,70.5C 201.72,73.1063 198.887,73.1063 196,70.5C 193.156,70.8263 190.989,72.1596 189.5,74.5C 189.808,75.3081 190.308,75.9747 191,76.5C 197.537,75.2083 198.037,76.375 192.5,80C 189.909,80.7423 187.576,81.2423 185.5,81.5C 184.201,80.3063 182.868,79.3063 181.5,78.5C 181.351,77.448 181.517,76.448 182,75.5C 185.12,73.8866 187.287,71.5533 188.5,68.5C 189.167,67.8333 189.833,67.1667 190.5,66.5C 193.962,65.5184 197.629,65.185 201.5,65.5 Z"/></g>
<g><path style="opacity:1" fill="#90eae3" d="M 212.5,71.5 C 214.167,72.8333 215.833,74.1667 217.5,75.5C 218.6,76.6049 219.267,77.9382 219.5,79.5C 219.5,80.1667 219.5,80.8333 219.5,81.5C 218.182,79.249 216.516,77.249 214.5,75.5C 213.4,74.3951 212.733,73.0618 212.5,71.5 Z"/></g>
<g><path style="opacity:1" fill="#6ce4e5" d="M 83.5,76.5 C 83.8333,76.5 84.1667,76.5 84.5,76.5C 84.0269,77.9063 83.0269,78.573 81.5,78.5C 81.8333,77.5 82.5,76.8333 83.5,76.5 Z"/></g>
<g><path style="opacity:1" fill="#38d5da" d="M 99.5,73.5 C 100.492,73.3284 101.158,73.6618 101.5,74.5C 100.5,74.5 99.5,74.5 98.5,74.5C 96.4727,74.3379 94.4727,74.5045 92.5,75C 92.8333,75.3333 93.1667,75.6667 93.5,76C 84.8361,77.1641 79.5028,81.9974 77.5,90.5C 75.8958,91.287 75.2291,92.6203 75.5,94.5C 73.6022,99.5276 73.2689,104.528 74.5,109.5C 74.2895,112.752 74.9562,115.752 76.5,118.5C 77.1667,120.5 77.8333,122.5 78.5,124.5C 78.5,125.5 78.5,126.5 78.5,127.5C 77.8333,127.167 77.1667,126.833 76.5,126.5C 75.6618,126.158 75.3284,125.492 75.5,124.5C 75.573,122.973 74.9063,121.973 73.5,121.5C 73.8799,119.302 73.2132,117.635 71.5,116.5C 71.4828,114.435 71.1495,112.435 70.5,110.5C 70.1805,105.637 70.5139,100.97 71.5,96.5C 73.0739,94.8984 73.7406,92.8984 73.5,90.5C 74.1098,89.609 74.4431,88.609 74.5,87.5C 74.5,87.1667 74.5,86.8333 74.5,86.5C 75.5,86.1667 76.1667,85.5 76.5,84.5C 78.2624,83.7377 79.2624,82.4044 79.5,80.5C 80.5,80.1667 81.1667,79.5 81.5,78.5C 83.0269,78.573 84.0269,77.9063 84.5,76.5C 85.5,76.1667 86.1667,75.5 86.5,74.5C 90.7978,73.8005 95.1311,73.4672 99.5,73.5 Z"/></g>
<g><path style="opacity:1" fill="#9df4f4" d="M 108.5,77.5 C 109.167,77.5 109.833,77.5 110.5,77.5C 111.167,78.5 111.833,79.5 112.5,80.5C 110.596,80.2624 109.262,79.2624 108.5,77.5 Z"/></g>
<g><path style="opacity:1" fill="#d2fbfb" d="M 84.5,74.5 C 84.1667,75.1667 83.8333,75.8333 83.5,76.5C 82.5,76.8333 81.8333,77.5 81.5,78.5C 78.796,78.6696 77.1293,80.0029 76.5,82.5C 76.5,82.8333 76.5,83.1667 76.5,83.5C 75.0937,83.9731 74.427,84.9731 74.5,86.5C 74.5,86.8333 74.5,87.1667 74.5,87.5C 72.2407,88.344 71.2407,90.0107 71.5,92.5C 70.8333,93.5 70.1667,94.5 69.5,95.5C 69.6785,92.7835 70.1785,90.1168 71,87.5C 73.1801,85.1367 74.8468,82.47 76,79.5C 78.9708,77.9363 81.8041,76.2696 84.5,74.5 Z"/></g>
<g><path style="opacity:1" fill="#63dcd6" d="M 179.5,74.5 C 179.245,76.9674 178.245,78.9674 176.5,80.5C 176.833,79.1667 177.167,77.8333 177.5,76.5C 177.833,75.5 178.5,74.8333 179.5,74.5 Z"/></g>
<g><path style="opacity:1" fill="#a4f3f2" d="M 81.5,78.5 C 81.1667,79.5 80.5,80.1667 79.5,80.5C 78.5,81.1667 77.5,81.8333 76.5,82.5C 77.1293,80.0029 78.796,78.6696 81.5,78.5 Z"/></g>
<g><path style="opacity:1" fill="#27d1c5" d="M 188.5,68.5 C 187.287,71.5533 185.12,73.8866 182,75.5C 181.517,76.448 181.351,77.448 181.5,78.5C 180.833,78.5 180.5,78.8333 180.5,79.5C 178.018,81.5027 177.018,84.1694 177.5,87.5C 176.539,85.7354 176.205,83.7354 176.5,81.5C 176.5,81.1667 176.5,80.8333 176.5,80.5C 178.245,78.9674 179.245,76.9674 179.5,74.5C 182.357,72.2417 185.357,70.2417 188.5,68.5 Z"/></g>
<g><path style="opacity:1" fill="#f5fdfc" d="M 84.5,73.5 C 84.5,73.8333 84.5,74.1667 84.5,74.5C 81.8041,76.2696 78.9708,77.9363 76,79.5C 74.8468,82.47 73.1801,85.1367 71,87.5C 70.1785,90.1168 69.6785,92.7835 69.5,95.5C 66.5691,100.102 65.9024,105.102 67.5,110.5C 66.4531,109.112 65.1198,108.279 63.5,108C 65.5342,105.901 65.8676,103.568 64.5,101C 65.3881,99.7803 66.0548,98.4469 66.5,97C 65.8677,93.9145 65.8677,90.7479 66.5,87.5C 67.5,87.5 68.5,87.5 69.5,87.5C 69.2011,85.396 69.5344,83.396 70.5,81.5C 71.1924,82.0253 71.6924,82.6919 72,83.5C 73.0836,82.3349 73.9169,81.0016 74.5,79.5C 73.3192,77.802 73.3192,76.1353 74.5,74.5C 77.7965,74.7589 81.1299,74.4255 84.5,73.5 Z"/></g>
<g><path style="opacity:1" fill="#65e4e2" d="M 79.5,80.5 C 79.2624,82.4044 78.2624,83.7377 76.5,84.5C 76.5,84.1667 76.5,83.8333 76.5,83.5C 76.5,83.1667 76.5,82.8333 76.5,82.5C 77.5,81.8333 78.5,81.1667 79.5,80.5 Z"/></g>
<g><path style="opacity:1" fill="#99eef0" d="M 112.5,80.5 C 113.167,80.8333 113.833,81.1667 114.5,81.5C 115.925,82.922 116.925,84.5887 117.5,86.5C 117.5,87.1667 117.5,87.8333 117.5,88.5C 116.833,88.1667 116.167,87.8333 115.5,87.5C 114.957,84.9616 113.957,82.6282 112.5,80.5 Z"/></g>
<g><path style="opacity:1" fill="#22d9cb" d="M 208.5,69.5 C 209.605,70.6005 210.938,71.2671 212.5,71.5C 212.733,73.0618 213.4,74.3951 214.5,75.5C 214.092,78.5993 215.259,80.9326 218,82.5C 217.988,85.6514 218.988,88.3181 221,90.5C 221.461,95.1841 221.295,99.8507 220.5,104.5C 219.5,105.167 218.5,105.833 217.5,106.5C 215.967,102.094 214.967,97.4272 214.5,92.5C 212.953,93.7682 211.953,95.4348 211.5,97.5C 212.167,98.1667 212.833,98.8333 213.5,99.5C 212.147,100.524 211.48,101.857 211.5,103.5C 209.167,103.5 206.833,103.5 204.5,103.5C 204.649,102.448 204.483,101.448 204,100.5C 202.903,102.053 201.57,103.386 200,104.5C 199.667,103.833 199.333,103.167 199,102.5C 197.989,103.337 196.822,103.67 195.5,103.5C 195.5,104.5 195.5,105.5 195.5,106.5C 196.833,106.5 198.167,106.5 199.5,106.5C 199.5,107.5 199.5,108.5 199.5,109.5C 203.5,109.833 203.5,110.167 199.5,110.5C 199.5,111.833 199.5,113.167 199.5,114.5C 195.243,113.597 192.743,115.264 192,119.5C 188.526,118.072 188.026,118.572 190.5,121C 189.748,121.671 189.414,122.504 189.5,123.5C 187.5,123.5 185.5,123.5 183.5,123.5C 183.665,120.482 183.498,117.482 183,114.5C 180.991,113.944 178.991,112.611 177,110.5C 176.855,105.448 177.355,100.448 178.5,95.5C 178.386,92.7825 178.052,90.1159 177.5,87.5C 177.018,84.1694 178.018,81.5027 180.5,79.5C 181.507,81.5699 181.174,83.5699 179.5,85.5C 181.081,91.131 182.581,96.7976 184,102.5C 184.333,103.167 184.667,103.833 185,104.5C 185.7,101.169 186.867,98.1691 188.5,95.5C 189.5,95.5 190.5,95.5 191.5,95.5C 191.238,96.9778 191.571,98.3112 192.5,99.5C 194.547,97.9848 196.881,97.1515 199.5,97C 197.693,95.3977 195.693,94.0644 193.5,93C 192.549,92.2825 192.383,91.4491 193,90.5C 198.009,87.9867 203.176,86.6534 208.5,86.5C 209.309,84.9291 209.643,83.2624 209.5,81.5C 210.5,81.5 211.5,81.5 212.5,81.5C 212.44,76.9386 210.107,74.4386 205.5,74C 204.663,72.9887 204.33,71.8221 204.5,70.5C 205.568,69.5655 206.901,69.2322 208.5,69.5 Z"/></g>
<g><path style="opacity:1" fill="#33d6d6" d="M 106.5,77.5 C 107.167,77.5 107.833,77.5 108.5,77.5C 109.262,79.2624 110.596,80.2624 112.5,80.5C 113.957,82.6282 114.957,84.9616 115.5,87.5C 114.778,87.9175 114.278,88.5842 114,89.5C 113.316,88.2161 113.483,87.0495 114.5,86C 110.242,84.5781 107.576,81.7447 106.5,77.5 Z"/></g>
<g><path style="opacity:1" fill="#f4fdfd" d="M 179.5,70.5 C 178.243,73.4274 176.243,75.7607 173.5,77.5C 168.617,90.1368 168.283,102.803 172.5,115.5C 171.21,114.942 170.377,113.942 170,112.5C 166.999,101.985 167.165,91.4854 170.5,81C 170.339,79.0436 170.006,77.0436 169.5,75C 171.129,74.4145 172.629,73.5812 174,72.5C 174.772,72.6448 175.439,72.9781 176,73.5C 176.422,71.5743 177.589,70.5743 179.5,70.5 Z"/></g>
<g><path style="opacity:1" fill="#8eeae9" d="M 177.5,76.5 C 177.167,77.8333 176.833,79.1667 176.5,80.5C 176.5,80.8333 176.5,81.1667 176.5,81.5C 175.5,82.8333 174.5,84.1667 173.5,85.5C 173.502,81.8355 174.835,78.8355 177.5,76.5 Z"/></g>
<g><path style="opacity:1" fill="#64d8cd" d="M 219.5,81.5 C 220.345,82.6715 221.011,84.0048 221.5,85.5C 221.5,86.5 221.5,87.5 221.5,88.5C 220.076,86.4855 219.41,84.1522 219.5,81.5 Z"/></g>
<g><path style="opacity:1" fill="#b8f5f0" d="M 219.5,79.5 C 220.857,80.5903 221.857,81.9236 222.5,83.5C 223.167,84.8333 223.833,86.1667 224.5,87.5C 224.5,88.5 224.5,89.5 224.5,90.5C 223.313,88.9275 222.313,87.2608 221.5,85.5C 221.011,84.0048 220.345,82.6715 219.5,81.5C 219.5,80.8333 219.5,80.1667 219.5,79.5 Z"/></g>
<g><path style="opacity:1" fill="#8decf2" d="M 76.5,83.5 C 76.5,83.8333 76.5,84.1667 76.5,84.5C 76.1667,85.5 75.5,86.1667 74.5,86.5C 74.427,84.9731 75.0937,83.9731 76.5,83.5 Z"/></g>
<g><path style="opacity:1" fill="#12d8e6" d="M 98.5,74.5 C 100.746,75.9528 103.079,77.4528 105.5,79C 105.13,81.9202 103.797,82.7535 101.5,81.5C 98.7201,80.1798 95.7201,79.6798 92.5,80C 93.9999,81.1145 95.6666,81.9479 97.5,82.5C 98.3857,83.325 98.719,84.325 98.5,85.5C 96.326,85.0798 94.326,85.0798 92.5,85.5C 91.2807,84.7366 90.2807,83.7366 89.5,82.5C 88.5,83.8333 87.5,83.8333 86.5,82.5C 85.2913,84.4145 83.958,86.2478 82.5,88C 83.6414,90.4486 84.6414,92.9486 85.5,95.5C 83.7905,99.5697 82.6238,99.2363 82,94.5C 80.0077,93.6719 78.5077,92.3386 77.5,90.5C 79.5028,81.9974 84.8361,77.1641 93.5,76C 93.1667,75.6667 92.8333,75.3333 92.5,75C 94.4727,74.5045 96.4727,74.3379 98.5,74.5 Z"/></g>
<g><path style="opacity:1" fill="#cbfafa" d="M 117.5,86.5 C 119.048,86.8212 119.715,87.8212 119.5,89.5C 118.833,89.1667 118.167,88.8333 117.5,88.5C 117.5,87.8333 117.5,87.1667 117.5,86.5 Z"/></g>
<g><path style="opacity:1" fill="#12dbe2" d="M 101.5,81.5 C 100.143,83.4988 100.81,84.6655 103.5,85C 102.389,86.6414 100.389,87.9748 97.5,89C 98.4231,91.0408 98.7564,93.2075 98.5,95.5C 100.5,95.5 102.5,95.5 104.5,95.5C 104.466,92.8015 105.133,90.3015 106.5,88C 105.663,86.9887 105.33,85.8221 105.5,84.5C 107.911,84.1367 109.411,85.1367 110,87.5C 111.197,85.1168 112.03,85.4501 112.5,88.5C 111.167,91.8333 109.833,95.1667 108.5,98.5C 109.423,99.8363 109.923,101.17 110,102.5C 107.976,104.346 105.643,105.679 103,106.5C 99.1665,105.267 95.3332,105.267 91.5,106.5C 91.9312,107.293 92.2645,108.127 92.5,109C 90.2454,112.925 87.0787,115.758 83,117.5C 82.729,113.87 81.0623,112.87 78,114.5C 77.79,116.058 77.29,117.391 76.5,118.5C 74.9562,115.752 74.2895,112.752 74.5,109.5C 76.1992,109.66 77.8659,109.494 79.5,109C 80.0219,108.439 80.3552,107.772 80.5,107C 77.5688,104.703 76.5688,101.869 77.5,98.5C 77.3318,96.8295 76.6651,95.4961 75.5,94.5C 75.2291,92.6203 75.8958,91.287 77.5,90.5C 78.5077,92.3386 80.0077,93.6719 82,94.5C 82.6238,99.2363 83.7905,99.5697 85.5,95.5C 84.6414,92.9486 83.6414,90.4486 82.5,88C 83.958,86.2478 85.2913,84.4145 86.5,82.5C 87.5,83.8333 88.5,83.8333 89.5,82.5C 90.2807,83.7366 91.2807,84.7366 92.5,85.5C 94.326,85.0798 96.326,85.0798 98.5,85.5C 98.719,84.325 98.3857,83.325 97.5,82.5C 95.6666,81.9479 93.9999,81.1145 92.5,80C 95.7201,79.6798 98.7201,80.1798 101.5,81.5 Z"/></g>
<g><path style="opacity:1" fill="#effefc" d="M 114.5,81.5 C 116.044,81.7031 117.378,82.3698 118.5,83.5C 119.476,86.1394 121.143,88.1394 123.5,89.5C 123.724,93.1788 124.058,96.8455 124.5,100.5C 124.167,100.5 123.833,100.5 123.5,100.5C 123.002,97.5131 122.502,94.5131 122,91.5C 121.583,90.244 120.75,89.5774 119.5,89.5C 119.715,87.8212 119.048,86.8212 117.5,86.5C 116.925,84.5887 115.925,82.922 114.5,81.5 Z"/></g>
<g><path style="opacity:1" fill="#91ebe8" d="M 117.5,88.5 C 118.167,88.8333 118.833,89.1667 119.5,89.5C 119.5,90.1667 119.5,90.8333 119.5,91.5C 118.094,91.0269 117.427,90.0269 117.5,88.5 Z"/></g>
<g><path style="opacity:1" fill="#9ceff0" d="M 74.5,87.5 C 74.4431,88.609 74.1098,89.609 73.5,90.5C 72.8333,91.1667 72.1667,91.8333 71.5,92.5C 71.2407,90.0107 72.2407,88.344 74.5,87.5 Z"/></g>
<g><path style="opacity:1" fill="#1edad0" d="M 204.5,70.5 C 204.33,71.8221 204.663,72.9887 205.5,74C 210.107,74.4386 212.44,76.9386 212.5,81.5C 211.5,81.5 210.5,81.5 209.5,81.5C 209.643,83.2624 209.309,84.9291 208.5,86.5C 203.176,86.6534 198.009,87.9867 193,90.5C 192.383,91.4491 192.549,92.2825 193.5,93C 195.693,94.0644 197.693,95.3977 199.5,97C 196.881,97.1515 194.547,97.9848 192.5,99.5C 191.571,98.3112 191.238,96.9778 191.5,95.5C 190.5,95.5 189.5,95.5 188.5,95.5C 186.867,98.1691 185.7,101.169 185,104.5C 184.667,103.833 184.333,103.167 184,102.5C 182.581,96.7976 181.081,91.131 179.5,85.5C 181.174,83.5699 181.507,81.5699 180.5,79.5C 180.5,78.8333 180.833,78.5 181.5,78.5C 182.868,79.3063 184.201,80.3063 185.5,81.5C 187.576,81.2423 189.909,80.7423 192.5,80C 198.037,76.375 197.537,75.2083 191,76.5C 190.308,75.9747 189.808,75.3081 189.5,74.5C 190.989,72.1596 193.156,70.8263 196,70.5C 198.887,73.1063 201.72,73.1063 204.5,70.5 Z"/></g>
<g><path style="opacity:1" fill="#16dbdd" d="M 98.5,74.5 C 99.5,74.5 100.5,74.5 101.5,74.5C 102.833,74.8333 104.167,75.1667 105.5,75.5C 105.833,76.1667 106.167,76.8333 106.5,77.5C 107.576,81.7447 110.242,84.5781 114.5,86C 113.483,87.0495 113.316,88.2161 114,89.5C 114.278,88.5842 114.778,87.9175 115.5,87.5C 118.449,97.0201 119.116,106.687 117.5,116.5C 115.852,115.19 114.186,113.857 112.5,112.5C 108.399,114.682 104.232,116.682 100,118.5C 99.6667,118.167 99.3333,117.833 99,117.5C 98.3333,118.833 97.3333,119.833 96,120.5C 96.9576,123.765 95.791,126.265 92.5,128C 94.1352,129.748 96.1352,130.915 98.5,131.5C 98.2124,132.861 97.879,134.194 97.5,135.5C 94.0119,135.295 90.6786,134.461 87.5,133C 84.0069,130.673 81.0069,127.84 78.5,124.5C 77.8333,122.5 77.1667,120.5 76.5,118.5C 77.29,117.391 77.79,116.058 78,114.5C 81.0623,112.87 82.729,113.87 83,117.5C 87.0787,115.758 90.2454,112.925 92.5,109C 92.2645,108.127 91.9312,107.293 91.5,106.5C 95.3332,105.267 99.1665,105.267 103,106.5C 105.643,105.679 107.976,104.346 110,102.5C 109.923,101.17 109.423,99.8363 108.5,98.5C 109.833,95.1667 111.167,91.8333 112.5,88.5C 112.03,85.4501 111.197,85.1168 110,87.5C 109.411,85.1367 107.911,84.1367 105.5,84.5C 105.33,85.8221 105.663,86.9887 106.5,88C 105.133,90.3015 104.466,92.8015 104.5,95.5C 102.5,95.5 100.5,95.5 98.5,95.5C 98.7564,93.2075 98.4231,91.0408 97.5,89C 100.389,87.9748 102.389,86.6414 103.5,85C 100.81,84.6655 100.143,83.4988 101.5,81.5C 103.797,82.7535 105.13,81.9202 105.5,79C 103.079,77.4528 100.746,75.9528 98.5,74.5 Z"/></g>
<g><path style="opacity:1" fill="#d5fcfa" d="M 184.5,68.5 C 182.117,69.8851 180.45,71.8851 179.5,74.5C 178.5,74.8333 177.833,75.5 177.5,76.5C 174.835,78.8355 173.502,81.8355 173.5,85.5C 172.732,86.2625 172.232,87.2625 172,88.5C 171.169,94.8595 171.336,101.193 172.5,107.5C 173.176,108.602 173.842,109.602 174.5,110.5C 175.434,111.568 175.768,112.901 175.5,114.5C 175.517,116.565 175.85,118.565 176.5,120.5C 175.167,118.833 173.833,117.167 172.5,115.5C 168.283,102.803 168.617,90.1368 173.5,77.5C 176.243,75.7607 178.243,73.4274 179.5,70.5C 180.167,70.1667 180.833,69.8333 181.5,69.5C 182.391,68.8902 183.391,68.5569 184.5,68.5 Z"/></g>
<g><path style="opacity:1" fill="#5be3e3" d="M 73.5,90.5 C 73.7406,92.8984 73.0739,94.8984 71.5,96.5C 71.5,95.1667 71.5,93.8333 71.5,92.5C 72.1667,91.8333 72.8333,91.1667 73.5,90.5 Z"/></g>
<g><path style="opacity:1" fill="#91eee8" d="M 173.5,85.5 C 172.116,93.8947 172.449,102.228 174.5,110.5C 173.842,109.602 173.176,108.602 172.5,107.5C 171.336,101.193 171.169,94.8595 172,88.5C 172.232,87.2625 172.732,86.2625 173.5,85.5 Z"/></g>
<g><path style="opacity:1" fill="#97f2f0" d="M 119.5,91.5 C 121.074,93.1016 121.741,95.1016 121.5,97.5C 121.167,97.5 120.833,97.5 120.5,97.5C 119.85,95.5648 119.517,93.5648 119.5,91.5 Z"/></g>
<g><path style="opacity:1" fill="#96eee5" d="M 221.5,85.5 C 222.313,87.2608 223.313,88.9275 224.5,90.5C 224.5,90.8333 224.5,91.1667 224.5,91.5C 224.819,96.3633 224.486,101.03 223.5,105.5C 223.818,100.968 223.485,96.6344 222.5,92.5C 222.567,91.0413 222.234,89.7079 221.5,88.5C 221.5,87.5 221.5,86.5 221.5,85.5 Z"/></g>
<g><path style="opacity:1" fill="#12d9e5" d="M 75.5,94.5 C 76.6651,95.4961 77.3318,96.8295 77.5,98.5C 76.5688,101.869 77.5688,104.703 80.5,107C 80.3552,107.772 80.0219,108.439 79.5,109C 77.8659,109.494 76.1992,109.66 74.5,109.5C 73.2689,104.528 73.6022,99.5276 75.5,94.5 Z"/></g>
<g><path style="opacity:1" fill="#f3fdfc" d="M 224.5,87.5 C 225.966,88.347 226.8,89.6803 227,91.5C 227.344,96.256 228.178,100.923 229.5,105.5C 226.649,111.203 223.815,116.87 221,122.5C 220.316,123.784 220.483,124.951 221.5,126C 220.975,126.692 220.308,127.192 219.5,127.5C 218.735,126.388 217.735,125.721 216.5,125.5C 218.314,123.035 219.647,120.368 220.5,117.5C 221.906,117.027 222.573,116.027 222.5,114.5C 226.224,108.064 227.391,101.064 226,93.5C 225.722,92.5842 225.222,91.9175 224.5,91.5C 224.5,91.1667 224.5,90.8333 224.5,90.5C 224.5,89.5 224.5,88.5 224.5,87.5 Z"/></g>
<g><path style="opacity:1" fill="#75e1d5" d="M 222.5,92.5 C 223.485,96.6344 223.818,100.968 223.5,105.5C 223.552,107.903 223.219,110.236 222.5,112.5C 221.833,112.833 221.167,113.167 220.5,113.5C 222.284,106.649 222.95,99.6489 222.5,92.5 Z"/></g>
<g><path style="opacity:1" fill="#d7fcf9" d="M 224.5,91.5 C 225.222,91.9175 225.722,92.5842 226,93.5C 227.391,101.064 226.224,108.064 222.5,114.5C 222.5,113.833 222.5,113.167 222.5,112.5C 223.219,110.236 223.552,107.903 223.5,105.5C 224.486,101.03 224.819,96.3633 224.5,91.5 Z"/></g>
<g><path style="opacity:1" fill="#33d2d2" d="M 115.5,87.5 C 116.167,87.8333 116.833,88.1667 117.5,88.5C 117.427,90.0269 118.094,91.0269 119.5,91.5C 119.517,93.5648 119.85,95.5648 120.5,97.5C 120.635,104.862 120.302,112.196 119.5,119.5C 119.737,120.791 119.404,121.791 118.5,122.5C 118.167,120.5 117.833,118.5 117.5,116.5C 119.116,106.687 118.449,97.0201 115.5,87.5 Z"/></g>
<g><path style="opacity:1" fill="#cafbfc" d="M 119.5,89.5 C 120.75,89.5774 121.583,90.244 122,91.5C 122.502,94.5131 123.002,97.5131 123.5,100.5C 123.818,105.032 123.485,109.366 122.5,113.5C 122.733,108.105 122.4,102.772 121.5,97.5C 121.741,95.1016 121.074,93.1016 119.5,91.5C 119.5,90.8333 119.5,90.1667 119.5,89.5 Z"/></g>
<g><path style="opacity:1" fill="#33d3cc" d="M 176.5,81.5 C 176.205,83.7354 176.539,85.7354 177.5,87.5C 178.052,90.1159 178.386,92.7825 178.5,95.5C 177.355,100.448 176.855,105.448 177,110.5C 178.991,112.611 180.991,113.944 183,114.5C 183.498,117.482 183.665,120.482 183.5,123.5C 182.167,122.5 180.833,121.5 179.5,120.5C 179.34,118.847 178.674,117.514 177.5,116.5C 176.833,115.833 176.167,115.167 175.5,114.5C 175.768,112.901 175.434,111.568 174.5,110.5C 172.449,102.228 172.116,93.8947 173.5,85.5C 174.5,84.1667 175.5,82.8333 176.5,81.5 Z"/></g>
<g><path style="opacity:1" fill="#41d3c3" d="M 214.5,75.5 C 216.516,77.249 218.182,79.249 219.5,81.5C 219.41,84.1522 220.076,86.4855 221.5,88.5C 222.234,89.7079 222.567,91.0413 222.5,92.5C 222.95,99.6489 222.284,106.649 220.5,113.5C 220.5,114.167 220.5,114.833 220.5,115.5C 219.662,115.842 219.328,116.508 219.5,117.5C 219.167,117.5 218.833,117.5 218.5,117.5C 219.425,113.21 220.091,108.876 220.5,104.5C 221.295,99.8507 221.461,95.1841 221,90.5C 218.988,88.3181 217.988,85.6514 218,82.5C 215.259,80.9326 214.092,78.5993 214.5,75.5 Z"/></g>
<g><path style="opacity:1" fill="#6be0df" d="M 120.5,97.5 C 120.833,97.5 121.167,97.5 121.5,97.5C 122.4,102.772 122.733,108.105 122.5,113.5C 122.443,114.609 122.11,115.609 121.5,116.5C 120.833,117.5 120.167,118.5 119.5,119.5C 120.302,112.196 120.635,104.862 120.5,97.5 Z"/></g>
<g><path style="opacity:1" fill="#96f2f4" d="M 71.5,92.5 C 71.5,93.8333 71.5,95.1667 71.5,96.5C 70.5139,100.97 70.1805,105.637 70.5,110.5C 69.5206,107.375 69.1872,104.042 69.5,100.5C 69.5,98.8333 69.5,97.1667 69.5,95.5C 70.1667,94.5 70.8333,93.5 71.5,92.5 Z"/></g>
<g><path style="opacity:1" fill="#e5fefd" d="M 69.5,95.5 C 69.5,97.1667 69.5,98.8333 69.5,100.5C 68.5184,103.962 68.185,107.629 68.5,111.5C 68.1667,111.5 67.8333,111.5 67.5,111.5C 67.5,111.167 67.5,110.833 67.5,110.5C 65.9024,105.102 66.5691,100.102 69.5,95.5 Z"/></g>
<g><path style="opacity:1" fill="#bbfafa" d="M 69.5,100.5 C 69.1872,104.042 69.5206,107.375 70.5,110.5C 71.1495,112.435 71.4828,114.435 71.5,116.5C 70.3127,114.928 69.3127,113.261 68.5,111.5C 68.185,107.629 68.5184,103.962 69.5,100.5 Z"/></g>
<g><path style="opacity:1" fill="#2cd7c1" d="M 220.5,104.5 C 220.091,108.876 219.425,113.21 218.5,117.5C 217.075,118.922 216.075,120.589 215.5,122.5C 214.833,122.833 214.167,123.167 213.5,123.5C 212.167,123.5 210.833,123.5 209.5,123.5C 208.976,120.812 207.309,119.312 204.5,119C 205.5,118.667 206.5,118.333 207.5,118C 210.747,114.087 214.081,110.254 217.5,106.5C 218.5,105.833 219.5,105.167 220.5,104.5 Z"/></g>
<g><path style="opacity:1" fill="#aaf1e9" d="M 222.5,112.5 C 222.5,113.167 222.5,113.833 222.5,114.5C 221.833,114.833 221.167,115.167 220.5,115.5C 220.5,114.833 220.5,114.167 220.5,113.5C 221.167,113.167 221.833,112.833 222.5,112.5 Z"/></g>
<g><path style="opacity:1" fill="#cffbf7" d="M 222.5,114.5 C 222.573,116.027 221.906,117.027 220.5,117.5C 220.5,116.833 220.5,116.167 220.5,115.5C 221.167,115.167 221.833,114.833 222.5,114.5 Z"/></g>
<g><path style="opacity:1" fill="#d8fdfd" d="M 68.5,111.5 C 69.3127,113.261 70.3127,114.928 71.5,116.5C 71.5,117.833 71.5,119.167 71.5,120.5C 69.5275,117.916 68.5275,114.916 68.5,111.5 Z"/></g>
<g><path style="opacity:1" fill="#87e9de" d="M 177.5,116.5 C 178.674,117.514 179.34,118.847 179.5,120.5C 177.896,119.713 177.229,118.38 177.5,116.5 Z"/></g>
<g><path style="opacity:1" fill="#25dac7" d="M 217.5,106.5 C 214.081,110.254 210.747,114.087 207.5,118C 206.5,118.333 205.5,118.667 204.5,119C 207.309,119.312 208.976,120.812 209.5,123.5C 207.5,123.5 206.5,124.5 206.5,126.5C 203.223,126.216 200.057,126.549 197,127.5C 195.266,126.751 193.433,126.251 191.5,126C 190.619,125.292 189.953,124.458 189.5,123.5C 189.414,122.504 189.748,121.671 190.5,121C 188.026,118.572 188.526,118.072 192,119.5C 192.743,115.264 195.243,113.597 199.5,114.5C 199.5,113.167 199.5,111.833 199.5,110.5C 203.5,110.167 203.5,109.833 199.5,109.5C 199.5,108.5 199.5,107.5 199.5,106.5C 198.167,106.5 196.833,106.5 195.5,106.5C 195.5,105.5 195.5,104.5 195.5,103.5C 196.822,103.67 197.989,103.337 199,102.5C 199.333,103.167 199.667,103.833 200,104.5C 201.57,103.386 202.903,102.053 204,100.5C 204.483,101.448 204.649,102.448 204.5,103.5C 206.833,103.5 209.167,103.5 211.5,103.5C 211.48,101.857 212.147,100.524 213.5,99.5C 212.833,98.8333 212.167,98.1667 211.5,97.5C 211.953,95.4348 212.953,93.7682 214.5,92.5C 214.967,97.4272 215.967,102.094 217.5,106.5 Z"/></g>
<g><path style="opacity:1" fill="#94f0f4" d="M 71.5,116.5 C 73.2132,117.635 73.8799,119.302 73.5,121.5C 72.8333,121.167 72.1667,120.833 71.5,120.5C 71.5,119.167 71.5,117.833 71.5,116.5 Z"/></g>
<g><path style="opacity:1" fill="#c6faf5" d="M 175.5,114.5 C 176.167,115.167 176.833,115.833 177.5,116.5C 177.229,118.38 177.896,119.713 179.5,120.5C 179.5,121.167 179.5,121.833 179.5,122.5C 178.5,121.833 177.5,121.167 176.5,120.5C 175.85,118.565 175.517,116.565 175.5,114.5 Z"/></g>
<g><path style="opacity:1" fill="#82e5d6" d="M 218.5,117.5 C 218.833,117.5 219.167,117.5 219.5,117.5C 218.925,119.411 217.925,121.078 216.5,122.5C 216.167,122.5 215.833,122.5 215.5,122.5C 216.075,120.589 217.075,118.922 218.5,117.5 Z"/></g>
<g><path style="opacity:1" fill="#a4f0e8" d="M 179.5,120.5 C 180.833,121.5 182.167,122.5 183.5,123.5C 183.5,124.167 183.833,124.5 184.5,124.5C 185.262,126.262 186.596,127.262 188.5,127.5C 189.872,128.512 191.205,129.512 192.5,130.5C 190.345,130.628 188.345,130.128 186.5,129C 184.297,126.628 181.963,124.461 179.5,122.5C 179.5,121.833 179.5,121.167 179.5,120.5 Z"/></g>
<g><path style="opacity:1" fill="#f4fefc" d="M 67.5,111.5 C 67.8333,111.5 68.1667,111.5 68.5,111.5C 68.5275,114.916 69.5275,117.916 71.5,120.5C 71.427,122.027 72.0937,123.027 73.5,123.5C 73.5,124.833 73.5,126.167 73.5,127.5C 68.6906,129.024 67.6906,127.691 70.5,123.5C 68.0069,120.873 65.6736,118.04 63.5,115C 65.9102,114.943 67.2435,113.776 67.5,111.5 Z"/></g>
<g><path style="opacity:1" fill="#c9fcfd" d="M 71.5,120.5 C 72.1667,120.833 72.8333,121.167 73.5,121.5C 73.5,122.167 73.5,122.833 73.5,123.5C 72.0937,123.027 71.427,122.027 71.5,120.5 Z"/></g>
<g><path style="opacity:1" fill="#e4fefe" d="M 123.5,100.5 C 123.833,100.5 124.167,100.5 124.5,100.5C 124.616,107.874 124.116,115.208 123,122.5C 121.53,124.631 120.03,126.631 118.5,128.5C 118.5,127.833 118.5,127.167 118.5,126.5C 118.5,125.833 118.5,125.167 118.5,124.5C 120.655,122.383 121.655,119.716 121.5,116.5C 122.11,115.609 122.443,114.609 122.5,113.5C 123.485,109.366 123.818,105.032 123.5,100.5 Z"/></g>
<g><path style="opacity:1" fill="#8cecee" d="M 73.5,121.5 C 74.9063,121.973 75.573,122.973 75.5,124.5C 74.8333,124.167 74.1667,123.833 73.5,123.5C 73.5,122.833 73.5,122.167 73.5,121.5 Z"/></g>
<g><path style="opacity:1" fill="#adf5f5" d="M 121.5,116.5 C 121.655,119.716 120.655,122.383 118.5,124.5C 118.5,123.833 118.5,123.167 118.5,122.5C 119.404,121.791 119.737,120.791 119.5,119.5C 120.167,118.5 120.833,117.5 121.5,116.5 Z"/></g>
<g><path style="opacity:1" fill="#45d0c0" d="M 209.5,123.5 C 210.833,123.5 212.167,123.5 213.5,123.5C 211.194,125.139 209.194,127.139 207.5,129.5C 206.833,129.5 206.167,129.5 205.5,129.5C 205.557,128.391 205.89,127.391 206.5,126.5C 206.5,124.5 207.5,123.5 209.5,123.5 Z"/></g>
<g><path style="opacity:1" fill="#64d9d0" d="M 184.5,124.5 C 186.404,124.738 187.738,125.738 188.5,127.5C 186.596,127.262 185.262,126.262 184.5,124.5 Z"/></g>
<g><path style="opacity:1" fill="#17dad8" d="M 117.5,116.5 C 117.833,118.5 118.167,120.5 118.5,122.5C 114.964,124.274 112.297,126.94 110.5,130.5C 109.675,131.386 108.675,131.719 107.5,131.5C 107.67,132.822 107.337,133.989 106.5,135C 103.518,135.498 100.518,135.665 97.5,135.5C 97.879,134.194 98.2124,132.861 98.5,131.5C 96.1352,130.915 94.1352,129.748 92.5,128C 95.791,126.265 96.9576,123.765 96,120.5C 97.3333,119.833 98.3333,118.833 99,117.5C 99.3333,117.833 99.6667,118.167 100,118.5C 104.232,116.682 108.399,114.682 112.5,112.5C 114.186,113.857 115.852,115.19 117.5,116.5 Z"/></g>
<g><path style="opacity:1" fill="#43d5c3" d="M 183.5,123.5 C 185.5,123.5 187.5,123.5 189.5,123.5C 189.953,124.458 190.619,125.292 191.5,126C 193.433,126.251 195.266,126.751 197,127.5C 200.057,126.549 203.223,126.216 206.5,126.5C 205.89,127.391 205.557,128.391 205.5,129.5C 201.366,130.485 197.032,130.818 192.5,130.5C 191.205,129.512 189.872,128.512 188.5,127.5C 187.738,125.738 186.404,124.738 184.5,124.5C 183.833,124.5 183.5,124.167 183.5,123.5 Z"/></g>
<g><path style="opacity:1" fill="#93e8e1" d="M 215.5,122.5 C 215.833,122.5 216.167,122.5 216.5,122.5C 214.051,125.556 211.051,127.889 207.5,129.5C 209.194,127.139 211.194,125.139 213.5,123.5C 214.167,123.167 214.833,122.833 215.5,122.5 Z"/></g>
<g><path style="opacity:1" fill="#8bedeb" d="M 76.5,126.5 C 77.1667,126.833 77.8333,127.167 78.5,127.5C 78.5,128.167 78.5,128.833 78.5,129.5C 77.0937,129.027 76.427,128.027 76.5,126.5 Z"/></g>
<g><path style="opacity:1" fill="#ccfbfb" d="M 73.5,123.5 C 74.1667,123.833 74.8333,124.167 75.5,124.5C 75.3284,125.492 75.6618,126.158 76.5,126.5C 76.427,128.027 77.0937,129.027 78.5,129.5C 80.1667,131.5 81.8333,133.5 83.5,135.5C 79.8726,133.206 76.5393,130.54 73.5,127.5C 73.5,126.167 73.5,124.833 73.5,123.5 Z"/></g>
<g><path style="opacity:1" fill="#83e7e7" d="M 78.5,129.5 C 81.7915,131.458 84.7915,133.791 87.5,136.5C 86.8333,136.5 86.1667,136.5 85.5,136.5C 84.5084,136.672 83.8417,136.338 83.5,135.5C 81.8333,133.5 80.1667,131.5 78.5,129.5 Z"/></g>
<g><path style="opacity:1" fill="#e8fdfc" d="M 176.5,120.5 C 177.5,121.167 178.5,121.833 179.5,122.5C 181.963,124.461 184.297,126.628 186.5,129C 188.345,130.128 190.345,130.628 192.5,130.5C 192.918,131.222 193.584,131.722 194.5,132C 198.152,132.499 201.818,132.665 205.5,132.5C 201.354,133.647 197.02,133.814 192.5,133C 189.688,131.451 186.688,130.618 183.5,130.5C 183.649,129.448 183.483,128.448 183,127.5C 180.534,125.242 178.367,122.909 176.5,120.5 Z"/></g>
<g><path style="opacity:1" fill="#91ebea" d="M 118.5,124.5 C 118.5,125.167 118.5,125.833 118.5,126.5C 115.862,129.474 113.195,132.474 110.5,135.5C 110.167,135.5 109.833,135.5 109.5,135.5C 109.167,135.5 108.833,135.5 108.5,135.5C 111.912,131.762 115.245,128.095 118.5,124.5 Z"/></g>
<g><path style="opacity:1" fill="#d2fcfc" d="M 118.5,126.5 C 118.5,127.167 118.5,127.833 118.5,128.5C 116.527,131.139 114.194,133.473 111.5,135.5C 111.167,135.5 110.833,135.5 110.5,135.5C 113.195,132.474 115.862,129.474 118.5,126.5 Z"/></g>
<g><path style="opacity:1" fill="#c7f8f3" d="M 220.5,115.5 C 220.5,116.167 220.5,116.833 220.5,117.5C 219.647,120.368 218.314,123.035 216.5,125.5C 213.314,128.624 209.647,130.958 205.5,132.5C 201.818,132.665 198.152,132.499 194.5,132C 193.584,131.722 192.918,131.222 192.5,130.5C 197.032,130.818 201.366,130.485 205.5,129.5C 206.167,129.5 206.833,129.5 207.5,129.5C 211.051,127.889 214.051,125.556 216.5,122.5C 217.925,121.078 218.925,119.411 219.5,117.5C 219.328,116.508 219.662,115.842 220.5,115.5 Z"/></g>
<g><path style="opacity:1" fill="#33d3d0" d="M 118.5,122.5 C 118.5,123.167 118.5,123.833 118.5,124.5C 115.245,128.095 111.912,131.762 108.5,135.5C 106.299,136.566 103.965,137.233 101.5,137.5C 96.7697,137.717 92.1031,137.383 87.5,136.5C 84.7915,133.791 81.7915,131.458 78.5,129.5C 78.5,128.833 78.5,128.167 78.5,127.5C 78.5,126.5 78.5,125.5 78.5,124.5C 81.0069,127.84 84.0069,130.673 87.5,133C 90.6786,134.461 94.0119,135.295 97.5,135.5C 100.518,135.665 103.518,135.498 106.5,135C 107.337,133.989 107.67,132.822 107.5,131.5C 108.675,131.719 109.675,131.386 110.5,130.5C 112.297,126.94 114.964,124.274 118.5,122.5 Z"/></g>
<g><path style="opacity:1" fill="#eefcfe" d="M 73.5,127.5 C 76.5393,130.54 79.8726,133.206 83.5,135.5C 83.8417,136.338 84.5084,136.672 85.5,136.5C 85.9731,137.906 86.9731,138.573 88.5,138.5C 89.9187,139.451 91.5853,139.784 93.5,139.5C 93.5,139.833 93.5,140.167 93.5,140.5C 90.7508,140.726 88.0841,140.393 85.5,139.5C 82.0349,137.302 78.7016,134.969 75.5,132.5C 74.5435,130.925 73.8769,129.258 73.5,127.5 Z"/></g>
<g><path style="opacity:1" fill="#c7fafc" d="M 85.5,136.5 C 86.1667,136.5 86.8333,136.5 87.5,136.5C 87.8333,137.167 88.1667,137.833 88.5,138.5C 86.9731,138.573 85.9731,137.906 85.5,136.5 Z"/></g>
<g><path style="opacity:1" fill="#81e8e5" d="M 87.5,136.5 C 92.1031,137.383 96.7697,137.717 101.5,137.5C 97.3656,138.485 93.0323,138.818 88.5,138.5C 88.1667,137.833 87.8333,137.167 87.5,136.5 Z"/></g>
<g><path style="opacity:1" fill="#b7f9f6" d="M 108.5,135.5 C 108.833,135.5 109.167,135.5 109.5,135.5C 108.751,137.246 107.417,138.246 105.5,138.5C 101.547,139.362 97.5474,139.695 93.5,139.5C 91.5853,139.784 89.9187,139.451 88.5,138.5C 93.0323,138.818 97.3656,138.485 101.5,137.5C 103.965,137.233 106.299,136.566 108.5,135.5 Z"/></g>
<g><path style="opacity:1" fill="#e6fefd" d="M 109.5,135.5 C 109.833,135.5 110.167,135.5 110.5,135.5C 110.833,135.5 111.167,135.5 111.5,135.5C 106.749,141.19 100.749,142.856 93.5,140.5C 93.5,140.167 93.5,139.833 93.5,139.5C 97.5474,139.695 101.547,139.362 105.5,138.5C 107.417,138.246 108.751,137.246 109.5,135.5 Z"/></g>
<g><path style="opacity:1" fill="#e9fefc" d="M 260.5,153.5 C 257.225,154.152 255.225,156.152 254.5,159.5C 253.833,159.5 253.5,159.833 253.5,160.5C 253.167,160.5 252.833,160.5 252.5,160.5C 253.038,158.883 253.371,157.216 253.5,155.5C 255.479,153.832 257.812,153.166 260.5,153.5 Z"/></g>
<g><path style="opacity:1" fill="#cbf8f2" d="M 260.5,153.5 C 260.833,153.5 261.167,153.5 261.5,153.5C 263.698,153.12 265.365,153.787 266.5,155.5C 264.833,155.5 263.167,155.5 261.5,155.5C 259.517,155.157 258.183,155.824 257.5,157.5C 256.5,158.167 255.5,158.833 254.5,159.5C 255.225,156.152 257.225,154.152 260.5,153.5 Z"/></g>
<g><path style="opacity:1" fill="#e1fbf8" d="M 261.5,153.5 C 262.946,152.387 264.613,152.22 266.5,153C 269.728,154.087 271.728,156.253 272.5,159.5C 271.5,158.833 270.5,158.167 269.5,157.5C 269.027,156.094 268.027,155.427 266.5,155.5C 265.365,153.787 263.698,153.12 261.5,153.5 Z"/></g>
<g><path style="opacity:1" fill="#9ae2d6" d="M 261.5,155.5 C 260.71,156.401 259.71,157.068 258.5,157.5C 258.167,157.5 257.833,157.5 257.5,157.5C 258.183,155.824 259.517,155.157 261.5,155.5 Z"/></g>
<g><path style="opacity:1" fill="#59cdb2" d="M 261.5,155.5 C 263.167,155.5 264.833,155.5 266.5,155.5C 266.973,156.906 267.973,157.573 269.5,157.5C 269.5,158.167 269.5,158.833 269.5,159.5C 269.167,159.5 268.833,159.5 268.5,159.5C 267.833,159.5 267.167,159.5 266.5,159.5C 266.03,158.307 265.03,157.64 263.5,157.5C 261.793,157.728 260.126,158.062 258.5,158.5C 258.5,158.167 258.5,157.833 258.5,157.5C 259.71,157.068 260.71,156.401 261.5,155.5 Z"/></g>
<g><path style="opacity:1" fill="#9fe7d8" d="M 266.5,155.5 C 268.027,155.427 269.027,156.094 269.5,157.5C 267.973,157.573 266.973,156.906 266.5,155.5 Z"/></g>
<g><path style="opacity:1" fill="#35d6ae" d="M 266.5,159.5 C 267.167,159.5 267.833,159.5 268.5,159.5C 268.838,162.157 268.171,164.49 266.5,166.5C 266.709,167.086 267.043,167.586 267.5,168C 266.214,170.022 265.214,172.189 264.5,174.5C 262.807,175.228 261.307,176.228 260,177.5C 259.814,174.964 259.314,172.631 258.5,170.5C 258.359,168.932 258.026,167.265 257.5,165.5C 256.675,164.614 255.675,164.281 254.5,164.5C 257.768,161.293 261.768,159.627 266.5,159.5 Z"/></g>
<g><path style="opacity:1" fill="#cffaf3" d="M 252.5,160.5 C 252.833,160.5 253.167,160.5 253.5,160.5C 251.774,162.228 250.441,164.228 249.5,166.5C 247.413,167.585 246.08,169.251 245.5,171.5C 244.5,172.833 243.5,174.167 242.5,175.5C 240.184,176.422 238.517,178.089 237.5,180.5C 237.167,180.5 236.833,180.5 236.5,180.5C 236.877,178.742 237.544,177.075 238.5,175.5C 241.887,174.28 244.054,171.947 245,168.5C 247.733,165.938 250.233,163.271 252.5,160.5 Z"/></g>
<g><path style="opacity:1" fill="#86e1cc" d="M 257.5,157.5 C 257.833,157.5 258.167,157.5 258.5,157.5C 258.5,157.833 258.5,158.167 258.5,158.5C 255.236,160.368 252.902,163.035 251.5,166.5C 250.833,166.833 250.167,167.167 249.5,167.5C 249.5,167.167 249.5,166.833 249.5,166.5C 250.441,164.228 251.774,162.228 253.5,160.5C 253.5,159.833 253.833,159.5 254.5,159.5C 255.5,158.833 256.5,158.167 257.5,157.5 Z"/></g>
<g><path style="opacity:1" fill="#aeefde" d="M 269.5,157.5 C 270.5,158.167 271.5,158.833 272.5,159.5C 272.81,162.713 272.477,165.713 271.5,168.5C 271.806,165.615 271.473,162.948 270.5,160.5C 270.5,159.833 270.167,159.5 269.5,159.5C 269.5,158.833 269.5,158.167 269.5,157.5 Z"/></g>
<g><path style="opacity:1" fill="#f2fdfd" d="M 253.5,155.5 C 253.371,157.216 253.038,158.883 252.5,160.5C 250.233,163.271 247.733,165.938 245,168.5C 244.054,171.947 241.887,174.28 238.5,175.5C 237.544,177.075 236.877,178.742 236.5,180.5C 234.5,182.167 232.5,183.833 230.5,185.5C 230.167,185.5 229.833,185.5 229.5,185.5C 229.586,184.504 229.252,183.671 228.5,183C 232.973,181.86 235.807,179.027 237,174.5C 238.875,173.258 240.709,171.924 242.5,170.5C 243.344,166.987 245.344,164.32 248.5,162.5C 247.619,161.029 246.286,160.196 244.5,160C 245.667,156.833 247.167,156.667 249,159.5C 250.371,157.959 251.871,156.625 253.5,155.5 Z"/></g>
<g><path style="opacity:1" fill="#83e2c8" d="M 270.5,160.5 C 271.473,162.948 271.806,165.615 271.5,168.5C 270.89,169.391 270.557,170.391 270.5,171.5C 269.833,171.833 269.167,172.167 268.5,172.5C 269.552,168.574 270.218,164.574 270.5,160.5 Z"/></g>
<g><path style="opacity:1" fill="#3dd0ab" d="M 266.5,159.5 C 261.768,159.627 257.768,161.293 254.5,164.5C 253.698,165.952 253.198,167.618 253,169.5C 248.537,172.124 245.371,175.79 243.5,180.5C 242.448,180.351 241.448,180.517 240.5,181C 239.897,183.071 238.564,184.238 236.5,184.5C 237.167,183.5 237.833,182.5 238.5,181.5C 238.833,180.5 239.5,179.833 240.5,179.5C 244.536,175.466 248.202,171.132 251.5,166.5C 252.902,163.035 255.236,160.368 258.5,158.5C 260.126,158.062 261.793,157.728 263.5,157.5C 265.03,157.64 266.03,158.307 266.5,159.5 Z"/></g>
<g><path style="opacity:1" fill="#a0eedb" d="M 249.5,166.5 C 249.5,166.833 249.5,167.167 249.5,167.5C 248.5,169.167 247.167,170.5 245.5,171.5C 246.08,169.251 247.413,167.585 249.5,166.5 Z"/></g>
<g><path style="opacity:1" fill="#e3fcf8" d="M 272.5,159.5 C 273.808,163.019 273.808,166.685 272.5,170.5C 272.025,173.155 270.691,175.155 268.5,176.5C 269.167,174.833 269.833,173.167 270.5,171.5C 270.557,170.391 270.89,169.391 271.5,168.5C 272.477,165.713 272.81,162.713 272.5,159.5 Z"/></g>
<g><path style="opacity:1" fill="#42d1aa" d="M 268.5,159.5 C 268.833,159.5 269.167,159.5 269.5,159.5C 270.167,159.5 270.5,159.833 270.5,160.5C 270.218,164.574 269.552,168.574 268.5,172.5C 264.373,176.726 260.707,181.392 257.5,186.5C 256.5,186.833 255.833,187.5 255.5,188.5C 253.97,189.211 252.637,190.211 251.5,191.5C 251.366,189.708 251.699,188.042 252.5,186.5C 254.017,186.489 255.184,185.823 256,184.5C 257.167,182.667 258.333,180.833 259.5,179C 257.327,176.302 256.994,173.469 258.5,170.5C 259.314,172.631 259.814,174.964 260,177.5C 261.307,176.228 262.807,175.228 264.5,174.5C 265.214,172.189 266.214,170.022 267.5,168C 267.043,167.586 266.709,167.086 266.5,166.5C 268.171,164.49 268.838,162.157 268.5,159.5 Z"/></g>
<g><path style="opacity:1" fill="#c6f6ec" d="M 270.5,171.5 C 269.833,173.167 269.167,174.833 268.5,176.5C 267.833,176.833 267.167,177.167 266.5,177.5C 266.893,175.716 267.559,174.05 268.5,172.5C 269.167,172.167 269.833,171.833 270.5,171.5 Z"/></g>
<g><path style="opacity:1" fill="#66d6ba" d="M 251.5,166.5 C 248.202,171.132 244.536,175.466 240.5,179.5C 240.733,177.938 241.4,176.605 242.5,175.5C 243.5,174.167 244.5,172.833 245.5,171.5C 247.167,170.5 248.5,169.167 249.5,167.5C 250.167,167.167 250.833,166.833 251.5,166.5 Z"/></g>
<g><path style="opacity:1" fill="#8ee3cb" d="M 268.5,172.5 C 267.559,174.05 266.893,175.716 266.5,177.5C 264.738,178.262 263.738,179.596 263.5,181.5C 261.5,182.833 259.833,184.5 258.5,186.5C 258.167,186.5 257.833,186.5 257.5,186.5C 260.707,181.392 264.373,176.726 268.5,172.5 Z"/></g>
<g><path style="opacity:1" fill="#f6fefa" d="M 46.5,180.5 C 43.8333,180.5 41.1667,180.5 38.5,180.5C 37.1667,180.5 35.8333,180.5 34.5,180.5C 34.3713,182.216 34.038,183.883 33.5,185.5C 33.1667,185.5 32.8333,185.5 32.5,185.5C 30.4668,183.325 30.1335,181.159 31.5,179C 36.6747,178.851 41.6747,179.351 46.5,180.5 Z"/></g>
<g><path style="opacity:1" fill="#d2f9f0" d="M 266.5,177.5 C 266.262,179.404 265.262,180.738 263.5,181.5C 263.738,179.596 264.738,178.262 266.5,177.5 Z"/></g>
<g><path style="opacity:1" fill="#93e6d4" d="M 242.5,175.5 C 241.4,176.605 240.733,177.938 240.5,179.5C 239.5,179.833 238.833,180.5 238.5,181.5C 238.167,181.5 237.833,181.5 237.5,181.5C 237.5,181.167 237.5,180.833 237.5,180.5C 238.517,178.089 240.184,176.422 242.5,175.5 Z"/></g>
<g><path style="opacity:1" fill="#e0fefd" d="M 38.5,180.5 C 38.5,180.833 38.5,181.167 38.5,181.5C 36.8333,182.833 35.1667,184.167 33.5,185.5C 34.038,183.883 34.3713,182.216 34.5,180.5C 35.8333,180.5 37.1667,180.5 38.5,180.5 Z"/></g>
<g><path style="opacity:1" fill="#ccfbfb" d="M 38.5,181.5 C 38.5,181.167 38.5,180.833 38.5,180.5C 41.1667,180.5 43.8333,180.5 46.5,180.5C 49.3953,181.799 52.062,183.465 54.5,185.5C 53.8333,185.5 53.1667,185.5 52.5,185.5C 51.1667,185.167 49.8333,184.833 48.5,184.5C 48.0269,183.094 47.0269,182.427 45.5,182.5C 45.1667,182.5 44.8333,182.5 44.5,182.5C 42.7354,181.539 40.7354,181.205 38.5,181.5 Z"/></g>
<g><path style="opacity:1" fill="#34d8ad" d="M 254.5,164.5 C 255.675,164.281 256.675,164.614 257.5,165.5C 258.026,167.265 258.359,168.932 258.5,170.5C 256.994,173.469 257.327,176.302 259.5,179C 258.333,180.833 257.167,182.667 256,184.5C 255.184,185.823 254.017,186.489 252.5,186.5C 251.226,184.671 249.726,184.338 248,185.5C 246.941,185.37 246.108,184.87 245.5,184C 246.973,183.29 247.64,182.124 247.5,180.5C 246.167,180.5 244.833,180.5 243.5,180.5C 245.371,175.79 248.537,172.124 253,169.5C 253.198,167.618 253.698,165.952 254.5,164.5 Z"/></g>
<g><path style="opacity:1" fill="#80e1e1" d="M 45.5,182.5 C 47.0269,182.427 48.0269,183.094 48.5,184.5C 46.9731,184.573 45.9731,183.906 45.5,182.5 Z"/></g>
<g><path style="opacity:1" fill="#f2fdfc" d="M 68.5,196.5 C 67.609,195.89 66.609,195.557 65.5,195.5C 63.7607,192.757 61.4274,190.757 58.5,189.5C 56.8333,188.5 55.5,187.167 54.5,185.5C 52.062,183.465 49.3953,181.799 46.5,180.5C 48.4008,180.567 50.2341,180.233 52,179.5C 55.5572,184.391 59.7239,188.557 64.5,192C 66.1075,191.981 67.7741,191.815 69.5,191.5C 69.3713,193.216 69.038,194.883 68.5,196.5 Z"/></g>
<g><path style="opacity:1" fill="#cdf9ef" d="M 263.5,181.5 C 262.925,183.411 261.925,185.078 260.5,186.5C 259.833,186.833 259.167,187.167 258.5,187.5C 258.5,187.167 258.5,186.833 258.5,186.5C 259.833,184.5 261.5,182.833 263.5,181.5 Z"/></g>
<g><path style="opacity:1" fill="#bcf8f7" d="M 52.5,185.5 C 53.1667,185.5 53.8333,185.5 54.5,185.5C 55.5,187.167 56.8333,188.5 58.5,189.5C 59.5,190.833 60.5,192.167 61.5,193.5C 61.1667,193.5 60.8333,193.5 60.5,193.5C 59.5,192.833 58.5,192.167 57.5,191.5C 55.8333,189.5 54.1667,187.5 52.5,185.5 Z"/></g>
<g><path style="opacity:1" fill="#2cd0cd" d="M 44.5,182.5 C 44.8333,182.5 45.1667,182.5 45.5,182.5C 45.9731,183.906 46.9731,184.573 48.5,184.5C 49.1098,185.391 49.4431,186.391 49.5,187.5C 48.0387,188.686 46.7054,188.686 45.5,187.5C 43.7182,185.313 41.5515,184.98 39,186.5C 38.3412,189.888 38.5078,193.221 39.5,196.5C 39.1667,196.5 38.8333,196.5 38.5,196.5C 36.7024,193.169 36.0357,189.502 36.5,185.5C 38.3914,182.828 41.0581,181.828 44.5,182.5 Z"/></g>
<g><path style="opacity:1" fill="#71e2dd" d="M 48.5,184.5 C 49.8333,184.833 51.1667,185.167 52.5,185.5C 54.1667,187.5 55.8333,189.5 57.5,191.5C 55.5887,190.925 53.922,189.925 52.5,188.5C 51.609,187.89 50.609,187.557 49.5,187.5C 49.4431,186.391 49.1098,185.391 48.5,184.5 Z"/></g>
<g><path style="opacity:1" fill="#a4eddc" d="M 236.5,180.5 C 236.833,180.5 237.167,180.5 237.5,180.5C 237.5,180.833 237.5,181.167 237.5,181.5C 234.833,183.833 232.167,186.167 229.5,188.5C 229.167,188.5 228.833,188.5 228.5,188.5C 229.167,187.5 229.833,186.5 230.5,185.5C 232.5,183.833 234.5,182.167 236.5,180.5 Z"/></g>
<g><path style="opacity:1" fill="#a5f0db" d="M 257.5,186.5 C 257.833,186.5 258.167,186.5 258.5,186.5C 258.5,186.833 258.5,187.167 258.5,187.5C 257.026,188.436 256.026,189.77 255.5,191.5C 255.167,191.5 254.833,191.5 254.5,191.5C 254.557,190.391 254.89,189.391 255.5,188.5C 255.833,187.5 256.5,186.833 257.5,186.5 Z"/></g>
<g><path style="opacity:1" fill="#c9f8f8" d="M 32.5,185.5 C 32.8333,185.5 33.1667,185.5 33.5,185.5C 33.1936,188.385 33.5269,191.052 34.5,193.5C 35.4408,195.05 36.1075,196.716 36.5,198.5C 35.5041,198.586 34.6708,198.252 34,197.5C 32.7633,193.94 32.2633,190.273 32.5,186.5C 32.5,186.167 32.5,185.833 32.5,185.5 Z"/></g>
<g><path style="opacity:1" fill="#97edec" d="M 38.5,181.5 C 40.7354,181.205 42.7354,181.539 44.5,182.5C 41.0581,181.828 38.3914,182.828 36.5,185.5C 35.8826,185.611 35.3826,185.944 35,186.5C 34.5034,188.81 34.3367,191.143 34.5,193.5C 33.5269,191.052 33.1936,188.385 33.5,185.5C 35.1667,184.167 36.8333,182.833 38.5,181.5 Z"/></g>
<g><path style="opacity:1" fill="#1adbd8" d="M 45.5,187.5 C 43.9582,188.301 42.2915,188.634 40.5,188.5C 40.5,189.5 40.5,190.5 40.5,191.5C 43.0667,191.145 45.5667,190.479 48,189.5C 48.5,189.833 49,190.167 49.5,190.5C 48.1667,192.5 46.8333,194.5 45.5,196.5C 43.7853,196.404 42.1186,196.404 40.5,196.5C 40.1667,196.5 39.8333,196.5 39.5,196.5C 38.5078,193.221 38.3412,189.888 39,186.5C 41.5515,184.98 43.7182,185.313 45.5,187.5 Z"/></g>
<g><path style="opacity:1" fill="#cffaf2" d="M 229.5,185.5 C 229.833,185.5 230.167,185.5 230.5,185.5C 229.833,186.5 229.167,187.5 228.5,188.5C 226.833,189.833 225.167,191.167 223.5,192.5C 224.415,190.246 225.748,188.246 227.5,186.5C 228.167,186.167 228.833,185.833 229.5,185.5 Z"/></g>
<g><path style="opacity:1" fill="#89e2cc" d="M 228.5,188.5 C 228.833,188.5 229.167,188.5 229.5,188.5C 228.5,189.833 227.5,191.167 226.5,192.5C 225.395,193.6 224.062,194.267 222.5,194.5C 222.833,193.833 223.167,193.167 223.5,192.5C 225.167,191.167 226.833,189.833 228.5,188.5 Z"/></g>
<g><path style="opacity:1" fill="#4ed5d2" d="M 36.5,185.5 C 36.0357,189.502 36.7024,193.169 38.5,196.5C 39.075,198.411 40.075,200.078 41.5,201.5C 40.8333,201.5 40.1667,201.5 39.5,201.5C 38.8333,200.167 37.8333,199.167 36.5,198.5C 36.1075,196.716 35.4408,195.05 34.5,193.5C 34.3367,191.143 34.5034,188.81 35,186.5C 35.3826,185.944 35.8826,185.611 36.5,185.5 Z"/></g>
<g><path style="opacity:1" fill="#d7fdfc" d="M 58.5,189.5 C 61.4274,190.757 63.7607,192.757 65.5,195.5C 64.8333,195.5 64.1667,195.5 63.5,195.5C 63.1667,194.5 62.5,193.833 61.5,193.5C 60.5,192.167 59.5,190.833 58.5,189.5 Z"/></g>
<g><path style="opacity:1" fill="#5ed2b4" d="M 237.5,181.5 C 237.833,181.5 238.167,181.5 238.5,181.5C 237.833,182.5 237.167,183.5 236.5,184.5C 235.833,184.5 235.5,184.833 235.5,185.5C 232.767,188.239 229.767,190.573 226.5,192.5C 227.5,191.167 228.5,189.833 229.5,188.5C 232.167,186.167 234.833,183.833 237.5,181.5 Z"/></g>
<g><path style="opacity:1" fill="#86e3ca" d="M 255.5,188.5 C 254.89,189.391 254.557,190.391 254.5,191.5C 252.833,192.5 251.5,193.833 250.5,195.5C 250.167,195.5 249.833,195.5 249.5,195.5C 249.5,195.167 249.5,194.833 249.5,194.5C 250.167,193.5 250.833,192.5 251.5,191.5C 252.637,190.211 253.97,189.211 255.5,188.5 Z"/></g>
<g><path style="opacity:1" fill="#bcf6ea" d="M 223.5,192.5 C 223.167,193.167 222.833,193.833 222.5,194.5C 220.596,194.738 219.262,195.738 218.5,197.5C 216.938,197.733 215.605,198.4 214.5,199.5C 213.833,199.5 213.167,199.5 212.5,199.5C 215.894,196.779 219.561,194.446 223.5,192.5 Z"/></g>
<g><path style="opacity:1" fill="#c9f9ef" d="M 254.5,191.5 C 254.833,191.5 255.167,191.5 255.5,191.5C 254.167,193.5 252.5,195.167 250.5,196.5C 250.5,196.167 250.5,195.833 250.5,195.5C 251.5,193.833 252.833,192.5 254.5,191.5 Z"/></g>
<g><path style="opacity:1" fill="#32d4d1" d="M 52.5,188.5 C 53.922,189.925 55.5887,190.925 57.5,191.5C 58.5,192.167 59.5,192.833 60.5,193.5C 60.5,193.833 60.5,194.167 60.5,194.5C 60.6716,195.492 60.3382,196.158 59.5,196.5C 58.5,196.5 57.5,196.5 56.5,196.5C 54.245,194.469 52.9116,191.802 52.5,188.5 Z"/></g>
<g><path style="opacity:1" fill="#94ede4" d="M 60.5,194.5 C 60.5,194.167 60.5,193.833 60.5,193.5C 60.8333,193.5 61.1667,193.5 61.5,193.5C 62.5,193.833 63.1667,194.5 63.5,195.5C 62.391,195.443 61.391,195.11 60.5,194.5 Z"/></g>
<g><path style="opacity:1" fill="#1cd8d3" d="M 45.5,187.5 C 46.7054,188.686 48.0387,188.686 49.5,187.5C 50.609,187.557 51.609,187.89 52.5,188.5C 52.9116,191.802 54.245,194.469 56.5,196.5C 55.8384,198.47 55.1717,200.47 54.5,202.5C 55.2739,203.711 56.1072,203.711 57,202.5C 57.8128,205.539 56.6461,207.206 53.5,207.5C 50.0308,204.928 46.3642,202.594 42.5,200.5C 41.3698,199.378 40.7031,198.044 40.5,196.5C 42.1186,196.404 43.7853,196.404 45.5,196.5C 46.8333,194.5 48.1667,192.5 49.5,190.5C 49,190.167 48.5,189.833 48,189.5C 45.5667,190.479 43.0667,191.145 40.5,191.5C 40.5,190.5 40.5,189.5 40.5,188.5C 42.2915,188.634 43.9582,188.301 45.5,187.5 Z"/></g>
<g><path style="opacity:1" fill="#7adfc5" d="M 222.5,194.5 C 221.738,196.262 220.404,197.262 218.5,197.5C 219.262,195.738 220.596,194.738 222.5,194.5 Z"/></g>
<g><path style="opacity:1" fill="#4fd0ae" d="M 249.5,194.5 C 249.5,194.833 249.5,195.167 249.5,195.5C 246.991,196.921 244.657,198.588 242.5,200.5C 242.886,196.446 245.22,194.446 249.5,194.5 Z"/></g>
<g><path style="opacity:1" fill="#95eee8" d="M 63.5,195.5 C 64.1667,195.5 64.8333,195.5 65.5,195.5C 66.1667,196.5 66.8333,197.5 67.5,198.5C 65.5956,198.262 64.2623,197.262 63.5,195.5 Z"/></g>
<g><path style="opacity:1" fill="#3bcea8" d="M 235.5,185.5 C 233.45,189.227 230.784,192.561 227.5,195.5C 223.223,197.623 219.39,200.29 216,203.5C 215.617,202.944 215.117,202.611 214.5,202.5C 215.833,200.833 217.167,199.167 218.5,197.5C 220.404,197.262 221.738,196.262 222.5,194.5C 224.062,194.267 225.395,193.6 226.5,192.5C 229.767,190.573 232.767,188.239 235.5,185.5 Z"/></g>
<g><path style="opacity:1" fill="#ecfefc" d="M 32.5,186.5 C 32.2633,190.273 32.7633,193.94 34,197.5C 34.6708,198.252 35.5041,198.586 36.5,198.5C 36.5,199.167 36.5,199.833 36.5,200.5C 33.9315,200.406 32.4315,199.072 32,196.5C 31.1925,192.973 31.3592,189.64 32.5,186.5 Z"/></g>
<g><path style="opacity:1" fill="#98e8d3" d="M 249.5,195.5 C 249.833,195.5 250.167,195.5 250.5,195.5C 250.5,195.833 250.5,196.167 250.5,196.5C 249.5,196.833 248.833,197.5 248.5,198.5C 243.863,201.824 239.196,205.157 234.5,208.5C 236.812,205.521 239.479,202.854 242.5,200.5C 244.657,198.588 246.991,196.921 249.5,195.5 Z"/></g>
<g><path style="opacity:1" fill="#bffaf8" d="M 36.5,198.5 C 37.8333,199.167 38.8333,200.167 39.5,201.5C 38.391,201.443 37.391,201.11 36.5,200.5C 36.5,199.833 36.5,199.167 36.5,198.5 Z"/></g>
<g><path style="opacity:1" fill="#97eeea" d="M 69.5,199.5 C 71.0269,199.427 72.0269,200.094 72.5,201.5C 70.9731,201.573 69.9731,200.906 69.5,199.5 Z"/></g>
<g><path style="opacity:1" fill="#bbf7e9" d="M 212.5,199.5 C 212.027,200.906 211.027,201.573 209.5,201.5C 209.973,200.094 210.973,199.427 212.5,199.5 Z"/></g>
<g><path style="opacity:1" fill="#82e2ca" d="M 212.5,199.5 C 213.167,199.5 213.833,199.5 214.5,199.5C 213.833,200.5 213.167,201.5 212.5,202.5C 210.833,203.167 209.167,203.833 207.5,204.5C 208.167,203.5 208.833,202.5 209.5,201.5C 211.027,201.573 212.027,200.906 212.5,199.5 Z"/></g>
<g><path style="opacity:1" fill="#5bd5b5" d="M 218.5,197.5 C 217.167,199.167 215.833,200.833 214.5,202.5C 213.833,202.5 213.167,202.5 212.5,202.5C 213.167,201.5 213.833,200.5 214.5,199.5C 215.605,198.4 216.938,197.733 218.5,197.5 Z"/></g>
<g><path style="opacity:1" fill="#d1faf2" d="M 248.5,198.5 C 245.806,201.86 242.806,204.86 239.5,207.5C 238.833,207.5 238.5,207.833 238.5,208.5C 236.833,209.167 235.167,209.833 233.5,210.5C 233.833,209.833 234.167,209.167 234.5,208.5C 239.196,205.157 243.863,201.824 248.5,198.5 Z"/></g>
<g><path style="opacity:1" fill="#d7fcfb" d="M 65.5,195.5 C 66.609,195.557 67.609,195.89 68.5,196.5C 71.2054,197.853 73.8721,199.186 76.5,200.5C 77.6002,201.558 78.9336,202.392 80.5,203C 81.8228,203.816 82.4894,204.983 82.5,206.5C 81.5084,206.672 80.8417,206.338 80.5,205.5C 80.0269,204.094 79.0269,203.427 77.5,203.5C 76.609,202.89 75.609,202.557 74.5,202.5C 73.5084,202.672 72.8417,202.338 72.5,201.5C 72.0269,200.094 71.0269,199.427 69.5,199.5C 69.1583,198.662 68.4916,198.328 67.5,198.5C 66.8333,197.5 66.1667,196.5 65.5,195.5 Z"/></g>
<g><path style="opacity:1" fill="#49cfa9" d="M 242.5,200.5 C 239.479,202.854 236.812,205.521 234.5,208.5C 230.59,209.772 226.923,211.439 223.5,213.5C 228.413,209.608 233.413,205.608 238.5,201.5C 239.736,200.754 241.07,200.421 242.5,200.5 Z"/></g>
<g><path style="opacity:1" fill="#37d1c8" d="M 38.5,196.5 C 38.8333,196.5 39.1667,196.5 39.5,196.5C 39.8333,196.5 40.1667,196.5 40.5,196.5C 40.7031,198.044 41.3698,199.378 42.5,200.5C 46.3642,202.594 50.0308,204.928 53.5,207.5C 56.7642,211.738 61.0976,214.404 66.5,215.5C 67.1272,216.417 67.4606,217.417 67.5,218.5C 65.5786,217.637 63.5786,216.971 61.5,216.5C 60.8333,216.5 60.1667,216.5 59.5,216.5C 59.1667,215.833 58.8333,215.167 58.5,214.5C 58.0269,213.094 57.0269,212.427 55.5,212.5C 54.8333,212.5 54.1667,212.5 53.5,212.5C 52.8333,211.5 52.1667,210.5 51.5,209.5C 51.0269,208.094 50.0269,207.427 48.5,207.5C 48.1667,207.5 47.8333,207.5 47.5,207.5C 46.7377,205.738 45.4044,204.738 43.5,204.5C 42.8333,203.5 42.1667,202.5 41.5,201.5C 40.075,200.078 39.075,198.411 38.5,196.5 Z"/></g>
<g><path style="opacity:1" fill="#f2fcfc" d="M 227.5,186.5 C 225.748,188.246 224.415,190.246 223.5,192.5C 219.561,194.446 215.894,196.779 212.5,199.5C 210.973,199.427 209.973,200.094 209.5,201.5C 208.391,201.557 207.391,201.89 206.5,202.5C 204.973,202.427 203.973,203.094 203.5,204.5C 201.973,204.427 200.973,205.094 200.5,206.5C 199.833,206.5 199.167,206.5 198.5,206.5C 195.728,206.759 193.395,207.759 191.5,209.5C 191.5,210.167 191.167,210.5 190.5,210.5C 187.031,210.547 183.698,211.213 180.5,212.5C 180.5,211.5 180.5,210.5 180.5,209.5C 183.734,209.795 186.734,209.129 189.5,207.5C 184.121,203.97 184.788,202.47 191.5,203C 192,203.5 192.5,204 193,204.5C 193.804,203.196 194.971,202.529 196.5,202.5C 198.155,203.228 199.821,203.395 201.5,203C 207.476,199.843 212.809,195.843 217.5,191C 219.134,190.506 220.801,190.34 222.5,190.5C 222.746,187.53 224.412,186.197 227.5,186.5 Z"/></g>
<g><path style="opacity:1" fill="#b0f1e4" d="M 209.5,201.5 C 208.833,202.5 208.167,203.5 207.5,204.5C 206.833,204.5 206.167,204.5 205.5,204.5C 205.833,203.833 206.167,203.167 206.5,202.5C 207.391,201.89 208.391,201.557 209.5,201.5 Z"/></g>
<g><path style="opacity:1" fill="#36d6ad" d="M 243.5,180.5 C 244.833,180.5 246.167,180.5 247.5,180.5C 247.64,182.124 246.973,183.29 245.5,184C 246.108,184.87 246.941,185.37 248,185.5C 249.726,184.338 251.226,184.671 252.5,186.5C 251.699,188.042 251.366,189.708 251.5,191.5C 250.833,192.5 250.167,193.5 249.5,194.5C 245.22,194.446 242.886,196.446 242.5,200.5C 241.07,200.421 239.736,200.754 238.5,201.5C 233.413,205.608 228.413,209.608 223.5,213.5C 223.5,213.833 223.5,214.167 223.5,214.5C 221.095,214.866 218.762,215.533 216.5,216.5C 214.813,216.24 213.313,215.573 212,214.5C 211.5,215 211,215.5 210.5,216C 212.007,216.837 212.507,218.004 212,219.5C 208.21,220.638 205.043,222.638 202.5,225.5C 202.5,226.167 202.167,226.5 201.5,226.5C 199.097,226.448 196.764,226.781 194.5,227.5C 193.078,227.291 191.745,226.791 190.5,226C 193.689,224.574 196.689,222.908 199.5,221C 199.034,219.701 199.034,218.201 199.5,216.5C 197.266,216.38 195.099,216.713 193,217.5C 191.251,217.252 190.418,216.252 190.5,214.5C 195.768,212.735 201.102,210.902 206.5,209C 209.42,207.054 212.087,204.887 214.5,202.5C 215.117,202.611 215.617,202.944 216,203.5C 219.39,200.29 223.223,197.623 227.5,195.5C 230.784,192.561 233.45,189.227 235.5,185.5C 235.5,184.833 235.833,184.5 236.5,184.5C 238.564,184.238 239.897,183.071 240.5,181C 241.448,180.517 242.448,180.351 243.5,180.5 Z"/></g>
<g><path style="opacity:1" fill="#f0fdfc" d="M 260.5,186.5 C 260.649,187.552 260.483,188.552 260,189.5C 255.032,194.123 250.532,199.123 246.5,204.5C 244.261,205.788 241.928,206.788 239.5,207.5C 242.806,204.86 245.806,201.86 248.5,198.5C 248.833,197.5 249.5,196.833 250.5,196.5C 252.5,195.167 254.167,193.5 255.5,191.5C 256.026,189.77 257.026,188.436 258.5,187.5C 259.167,187.167 259.833,186.833 260.5,186.5 Z"/></g>
<g><path style="opacity:1" fill="#bbf7f6" d="M 39.5,201.5 C 40.1667,201.5 40.8333,201.5 41.5,201.5C 42.1667,202.5 42.8333,203.5 43.5,204.5C 43.5,204.833 43.5,205.167 43.5,205.5C 41.2901,205.106 39.9568,203.773 39.5,201.5 Z"/></g>
<g><path style="opacity:1" fill="#8cede4" d="M 74.5,202.5 C 75.609,202.557 76.609,202.89 77.5,203.5C 77.8333,204.167 78.1667,204.833 78.5,205.5C 77.8333,205.5 77.1667,205.5 76.5,205.5C 75.8333,204.5 75.1667,203.5 74.5,202.5 Z"/></g>
<g><path style="opacity:1" fill="#d1f9f4" d="M 206.5,202.5 C 206.167,203.167 205.833,203.833 205.5,204.5C 204.833,204.5 204.167,204.5 203.5,204.5C 203.973,203.094 204.973,202.427 206.5,202.5 Z"/></g>
<g><path style="opacity:1" fill="#3dcfab" d="M 212.5,202.5 C 213.167,202.5 213.833,202.5 214.5,202.5C 212.087,204.887 209.42,207.054 206.5,209C 201.102,210.902 195.768,212.735 190.5,214.5C 185.441,217.103 180.107,219.103 174.5,220.5C 171.272,221.414 167.939,221.747 164.5,221.5C 165.5,220.833 166.5,220.167 167.5,219.5C 172.165,218.943 176.498,217.61 180.5,215.5C 182.898,215.741 184.898,215.074 186.5,213.5C 188.435,212.85 190.435,212.517 192.5,212.5C 195.331,211.921 197.664,210.588 199.5,208.5C 201.027,208.573 202.027,207.906 202.5,206.5C 204.027,206.573 205.027,205.906 205.5,204.5C 206.167,204.5 206.833,204.5 207.5,204.5C 209.167,203.833 210.833,203.167 212.5,202.5 Z"/></g>
<g><path style="opacity:1" fill="#8eefe6" d="M 43.5,205.5 C 43.5,205.167 43.5,204.833 43.5,204.5C 45.4044,204.738 46.7377,205.738 47.5,207.5C 47.1667,207.5 46.8333,207.5 46.5,207.5C 45.5,206.833 44.5,206.167 43.5,205.5 Z"/></g>
<g><path style="opacity:1" fill="#b1f8f2" d="M 77.5,203.5 C 79.0269,203.427 80.0269,204.094 80.5,205.5C 79.8333,205.5 79.1667,205.5 78.5,205.5C 78.1667,204.833 77.8333,204.167 77.5,203.5 Z"/></g>
<g><path style="opacity:1" fill="#b9f6ea" d="M 203.5,204.5 C 203.167,205.167 202.833,205.833 202.5,206.5C 201.833,206.5 201.167,206.5 200.5,206.5C 200.973,205.094 201.973,204.427 203.5,204.5 Z"/></g>
<g><path style="opacity:1" fill="#8ce6d1" d="M 203.5,204.5 C 204.167,204.5 204.833,204.5 205.5,204.5C 205.027,205.906 204.027,206.573 202.5,206.5C 202.833,205.833 203.167,205.167 203.5,204.5 Z"/></g>
<g><path style="opacity:1" fill="#20d9cd" d="M 56.5,196.5 C 57.5,196.5 58.5,196.5 59.5,196.5C 62.7574,198.131 65.0907,200.631 66.5,204C 70.5451,204.551 73.2117,206.718 74.5,210.5C 73.791,211.404 72.791,211.737 71.5,211.5C 71.5,212.833 71.5,214.167 71.5,215.5C 74.7916,215.12 77.1249,216.453 78.5,219.5C 78.0431,220.298 77.3764,220.631 76.5,220.5C 73.5394,219.677 70.5394,219.01 67.5,218.5C 67.4606,217.417 67.1272,216.417 66.5,215.5C 61.0976,214.404 56.7642,211.738 53.5,207.5C 56.6461,207.206 57.8128,205.539 57,202.5C 56.1072,203.711 55.2739,203.711 54.5,202.5C 55.1717,200.47 55.8384,198.47 56.5,196.5 Z"/></g>
<g><path style="opacity:1" fill="#6aded9" d="M 48.5,207.5 C 50.0269,207.427 51.0269,208.094 51.5,209.5C 50.8333,209.5 50.1667,209.5 49.5,209.5C 49.1667,208.833 48.8333,208.167 48.5,207.5 Z"/></g>
<g><path style="opacity:1" fill="#32d5c8" d="M 60.5,194.5 C 61.391,195.11 62.391,195.443 63.5,195.5C 64.2623,197.262 65.5956,198.262 67.5,198.5C 68.4916,198.328 69.1583,198.662 69.5,199.5C 69.9731,200.906 70.9731,201.573 72.5,201.5C 72.8417,202.338 73.5084,202.672 74.5,202.5C 75.1667,203.5 75.8333,204.5 76.5,205.5C 75.1716,206.91 75.5049,208.076 77.5,209C 76.7562,210.039 75.7562,210.539 74.5,210.5C 73.2117,206.718 70.5451,204.551 66.5,204C 65.0907,200.631 62.7574,198.131 59.5,196.5C 60.3382,196.158 60.6716,195.492 60.5,194.5 Z"/></g>
<g><path style="opacity:1" fill="#b5f5ef" d="M 82.5,206.5 C 86.0075,206.92 89.3408,207.92 92.5,209.5C 93.8333,210.5 95.1667,211.5 96.5,212.5C 94.4352,212.483 92.4352,212.15 90.5,211.5C 87.8333,209.833 85.1667,208.167 82.5,206.5 Z"/></g>
<g><path style="opacity:1" fill="#f5fdfb" d="M 76.5,200.5 C 78.1992,200.34 79.8659,200.506 81.5,201C 83.2037,203.547 85.537,205.047 88.5,205.5C 88.5,204.5 88.5,203.5 88.5,202.5C 90.5824,202.472 92.4157,203.139 94,204.5C 94.3333,204.167 94.6667,203.833 95,203.5C 97.9674,206.033 100.801,208.699 103.5,211.5C 99.8598,210.727 96.1932,210.06 92.5,209.5C 89.3408,207.92 86.0075,206.92 82.5,206.5C 82.4894,204.983 81.8228,203.816 80.5,203C 78.9336,202.392 77.6002,201.558 76.5,200.5 Z"/></g>
<g><path style="opacity:1" fill="#a6efdd" d="M 198.5,206.5 C 199.167,206.5 199.833,206.5 200.5,206.5C 200.167,207.167 199.833,207.833 199.5,208.5C 198.833,208.5 198.167,208.5 197.5,208.5C 197.833,207.833 198.167,207.167 198.5,206.5 Z"/></g>
<g><path style="opacity:1" fill="#76dec6" d="M 200.5,206.5 C 201.167,206.5 201.833,206.5 202.5,206.5C 202.027,207.906 201.027,208.573 199.5,208.5C 199.833,207.833 200.167,207.167 200.5,206.5 Z"/></g>
<g><path style="opacity:1" fill="#b1f4f1" d="M 46.5,207.5 C 46.8333,207.5 47.1667,207.5 47.5,207.5C 47.8333,207.5 48.1667,207.5 48.5,207.5C 48.8333,208.167 49.1667,208.833 49.5,209.5C 47.9731,209.573 46.9731,208.906 46.5,207.5 Z"/></g>
<g><path style="opacity:1" fill="#d5fbf4" d="M 198.5,206.5 C 198.167,207.167 197.833,207.833 197.5,208.5C 196.508,208.328 195.842,208.662 195.5,209.5C 194.167,209.5 192.833,209.5 191.5,209.5C 193.395,207.759 195.728,206.759 198.5,206.5 Z"/></g>
<g><path style="opacity:1" fill="#a6f0ef" d="M 49.5,209.5 C 50.1667,209.5 50.8333,209.5 51.5,209.5C 52.1667,210.5 52.8333,211.5 53.5,212.5C 51.5956,212.262 50.2623,211.262 49.5,209.5 Z"/></g>
<g><path style="opacity:1" fill="#56d8ca" d="M 78.5,205.5 C 79.1667,205.5 79.8333,205.5 80.5,205.5C 80.8417,206.338 81.5084,206.672 82.5,206.5C 85.1667,208.167 87.8333,209.833 90.5,211.5C 86.8894,211.249 83.556,210.249 80.5,208.5C 79.5987,207.71 78.9321,206.71 78.5,205.5 Z"/></g>
<g><path style="opacity:1" fill="#ecfdfb" d="M 36.5,200.5 C 37.391,201.11 38.391,201.443 39.5,201.5C 39.9568,203.773 41.2901,205.106 43.5,205.5C 44.5,206.167 45.5,206.833 46.5,207.5C 46.9731,208.906 47.9731,209.573 49.5,209.5C 50.2623,211.262 51.5956,212.262 53.5,212.5C 53.9731,213.906 54.9731,214.573 56.5,214.5C 56.8333,215.167 57.1667,215.833 57.5,216.5C 55.8333,216.5 54.1667,216.5 52.5,216.5C 52.5,215.5 52.5,214.5 52.5,213.5C 49.8333,213.833 47.1667,214.167 44.5,214.5C 46.9249,209.276 45.2582,206.776 39.5,207C 38.6196,204.741 37.6196,202.575 36.5,200.5 Z"/></g>
<g><path style="opacity:1" fill="#defdfa" d="M 92.5,209.5 C 96.1932,210.06 99.8598,210.727 103.5,211.5C 106.702,212.047 109.702,213.047 112.5,214.5C 113.5,215.167 114.5,215.833 115.5,216.5C 115.5,216.833 115.5,217.167 115.5,217.5C 114.167,217.5 112.833,217.5 111.5,217.5C 110.01,215.72 108.01,215.054 105.5,215.5C 102.368,214.64 99.3676,213.64 96.5,212.5C 95.1667,211.5 93.8333,210.5 92.5,209.5 Z"/></g>
<g><path style="opacity:1" fill="#7edbc3" d="M 234.5,208.5 C 234.167,209.167 233.833,209.833 233.5,210.5C 233.167,210.5 232.833,210.5 232.5,210.5C 229.808,212.206 227.141,213.872 224.5,215.5C 224.167,215.5 223.833,215.5 223.5,215.5C 223.5,215.167 223.5,214.833 223.5,214.5C 223.5,214.167 223.5,213.833 223.5,213.5C 226.923,211.439 230.59,209.772 234.5,208.5 Z"/></g>
<g><path style="opacity:1" fill="#66d7b8" d="M 197.5,208.5 C 198.167,208.5 198.833,208.5 199.5,208.5C 197.664,210.588 195.331,211.921 192.5,212.5C 193.1,211.1 194.1,210.1 195.5,209.5C 195.842,208.662 196.508,208.328 197.5,208.5 Z"/></g>
<g><path style="opacity:1" fill="#c7f9f1" d="M 190.5,210.5 C 188.5,211.5 186.5,212.5 184.5,213.5C 182.847,213.66 181.514,214.326 180.5,215.5C 179.167,215.5 177.833,215.5 176.5,215.5C 176.5,215.167 176.5,214.833 176.5,214.5C 177.833,213.833 179.167,213.167 180.5,212.5C 183.698,211.213 187.031,210.547 190.5,210.5 Z"/></g>
<g><path style="opacity:1" fill="#92e8d4" d="M 191.5,209.5 C 192.833,209.5 194.167,209.5 195.5,209.5C 194.1,210.1 193.1,211.1 192.5,212.5C 190.435,212.517 188.435,212.85 186.5,213.5C 185.833,213.5 185.167,213.5 184.5,213.5C 186.5,212.5 188.5,211.5 190.5,210.5C 191.167,210.5 191.5,210.167 191.5,209.5 Z"/></g>
<g><path style="opacity:1" fill="#a6f3ef" d="M 53.5,212.5 C 54.1667,212.5 54.8333,212.5 55.5,212.5C 55.8333,213.167 56.1667,213.833 56.5,214.5C 54.9731,214.573 53.9731,213.906 53.5,212.5 Z"/></g>
<g><path style="opacity:1" fill="#69e0d6" d="M 55.5,212.5 C 57.0269,212.427 58.0269,213.094 58.5,214.5C 57.8333,214.5 57.1667,214.5 56.5,214.5C 56.1667,213.833 55.8333,213.167 55.5,212.5 Z"/></g>
<g><path style="opacity:1" fill="#c4f4ea" d="M 232.5,210.5 C 230.687,213.647 228.02,215.647 224.5,216.5C 224.5,216.167 224.5,215.833 224.5,215.5C 227.141,213.872 229.808,212.206 232.5,210.5 Z"/></g>
<g><path style="opacity:1" fill="#f4fefd" d="M 112.5,214.5 C 121.331,215.225 129.997,216.225 138.5,217.5C 130.817,217.477 123.15,217.143 115.5,216.5C 114.5,215.833 113.5,215.167 112.5,214.5 Z"/></g>
<g><path style="opacity:1" fill="#78dfc8" d="M 184.5,213.5 C 185.167,213.5 185.833,213.5 186.5,213.5C 184.898,215.074 182.898,215.741 180.5,215.5C 181.514,214.326 182.847,213.66 184.5,213.5 Z"/></g>
<g><path style="opacity:1" fill="#43d0ab" d="M 223.5,214.5 C 223.5,214.833 223.5,215.167 223.5,215.5C 219.813,217.533 216.147,219.533 212.5,221.5C 210.033,221.755 208.033,222.755 206.5,224.5C 205.292,225.234 203.959,225.567 202.5,225.5C 205.043,222.638 208.21,220.638 212,219.5C 212.507,218.004 212.007,216.837 210.5,216C 211,215.5 211.5,215 212,214.5C 213.313,215.573 214.813,216.24 216.5,216.5C 218.762,215.533 221.095,214.866 223.5,214.5 Z"/></g>
<g><path style="opacity:1" fill="#a5f6f1" d="M 56.5,214.5 C 57.1667,214.5 57.8333,214.5 58.5,214.5C 58.8333,215.167 59.1667,215.833 59.5,216.5C 58.8333,216.5 58.1667,216.5 57.5,216.5C 57.1667,215.833 56.8333,215.167 56.5,214.5 Z"/></g>
<g><path style="opacity:1" fill="#e8fdfb" d="M 238.5,208.5 C 234.989,210.479 231.989,213.145 229.5,216.5C 227.022,217.883 224.355,218.883 221.5,219.5C 221.5,219.167 221.5,218.833 221.5,218.5C 222.29,217.599 223.29,216.932 224.5,216.5C 228.02,215.647 230.687,213.647 232.5,210.5C 232.833,210.5 233.167,210.5 233.5,210.5C 235.167,209.833 236.833,209.167 238.5,208.5 Z"/></g>
<g><path style="opacity:1" fill="#93efe5" d="M 105.5,215.5 C 108.01,215.054 110.01,215.72 111.5,217.5C 109.102,217.741 107.102,217.074 105.5,215.5 Z"/></g>
<g><path style="opacity:1" fill="#ddfdf8" d="M 176.5,214.5 C 176.5,214.833 176.5,215.167 176.5,215.5C 172.014,216.269 167.68,217.269 163.5,218.5C 162.167,218.5 160.833,218.5 159.5,218.5C 159.5,218.167 159.5,217.833 159.5,217.5C 164.872,215.613 170.539,214.613 176.5,214.5 Z"/></g>
<g><path style="opacity:1" fill="#a5f0de" d="M 176.5,215.5 C 172.595,217.876 168.261,218.876 163.5,218.5C 167.68,217.269 172.014,216.269 176.5,215.5 Z"/></g>
<g><path style="opacity:1" fill="#32d7b2" d="M 190.5,214.5 C 190.418,216.252 191.251,217.252 193,217.5C 195.099,216.713 197.266,216.38 199.5,216.5C 199.034,218.201 199.034,219.701 199.5,221C 196.689,222.908 193.689,224.574 190.5,226C 191.745,226.791 193.078,227.291 194.5,227.5C 192.369,228.314 190.036,228.814 187.5,229C 186.944,229.383 186.611,229.883 186.5,230.5C 181.167,230.933 175.834,231.433 170.5,232C 169.643,232.689 168.977,233.522 168.5,234.5C 154.868,235.863 141.201,236.53 127.5,236.5C 127.5,236.167 127.5,235.833 127.5,235.5C 134.02,234.29 140.353,234.29 146.5,235.5C 149.91,234.751 153.244,233.751 156.5,232.5C 154.314,231.779 152.147,231.113 150,230.5C 149.505,228.527 149.338,226.527 149.5,224.5C 154.82,225.166 160.153,225.832 165.5,226.5C 168.729,224.281 172.396,223.115 176.5,223C 175.244,222.583 174.577,221.75 174.5,220.5C 180.107,219.103 185.441,217.103 190.5,214.5 Z"/></g>
<g><path style="opacity:1" fill="#f4fdfd" d="M 229.5,216.5 C 228.952,217.688 228.619,218.855 228.5,220C 226.5,220.333 224.5,220.667 222.5,221C 218.905,223.699 214.905,225.533 210.5,226.5C 211.167,225.5 211.833,224.5 212.5,223.5C 213.167,223.167 213.833,222.833 214.5,222.5C 217.119,222.075 219.453,221.075 221.5,219.5C 224.355,218.883 227.022,217.883 229.5,216.5 Z"/></g>
<g><path style="opacity:1" fill="#d8fefe" d="M 57.5,216.5 C 58.1667,216.5 58.8333,216.5 59.5,216.5C 59.8333,217.167 60.1667,217.833 60.5,218.5C 58.9731,218.573 57.9731,217.906 57.5,216.5 Z"/></g>
<g><path style="opacity:1" fill="#acf6f2" d="M 59.5,216.5 C 60.1667,216.5 60.8333,216.5 61.5,216.5C 61.8333,217.167 62.1667,217.833 62.5,218.5C 61.8333,218.5 61.1667,218.5 60.5,218.5C 60.1667,217.833 59.8333,217.167 59.5,216.5 Z"/></g>
<g><path style="opacity:1" fill="#69e0d7" d="M 61.5,216.5 C 63.5786,216.971 65.5786,217.637 67.5,218.5C 67.5,219.167 67.5,219.833 67.5,220.5C 65.7162,220.107 64.0495,219.441 62.5,218.5C 62.1667,217.833 61.8333,217.167 61.5,216.5 Z"/></g>
<g><path style="opacity:1" fill="#25d8c4" d="M 76.5,205.5 C 77.1667,205.5 77.8333,205.5 78.5,205.5C 78.9321,206.71 79.5987,207.71 80.5,208.5C 80.5743,210.411 81.5743,211.578 83.5,212C 91.2632,212.183 98.2632,214.349 104.5,218.5C 101.531,217.671 98.5314,217.505 95.5,218C 98.2764,219.779 97.9431,220.779 94.5,221C 93.5502,223.59 91.8835,225.59 89.5,227C 91.437,227.122 92.7703,227.955 93.5,229.5C 92.1667,229.5 90.8333,229.5 89.5,229.5C 88.8825,227.771 87.8825,226.271 86.5,225C 83.5184,224.502 80.5184,224.335 77.5,224.5C 77.5674,223.041 77.2341,221.708 76.5,220.5C 77.3764,220.631 78.0431,220.298 78.5,219.5C 77.1249,216.453 74.7916,215.12 71.5,215.5C 71.5,214.167 71.5,212.833 71.5,211.5C 72.791,211.737 73.791,211.404 74.5,210.5C 75.7562,210.539 76.7562,210.039 77.5,209C 75.5049,208.076 75.1716,206.91 76.5,205.5 Z"/></g>
<g><path style="opacity:1" fill="#e4fefb" d="M 115.5,217.5 C 115.5,217.167 115.5,216.833 115.5,216.5C 123.15,217.143 130.817,217.477 138.5,217.5C 145.5,217.5 152.5,217.5 159.5,217.5C 159.5,217.833 159.5,218.167 159.5,218.5C 159.5,218.833 159.5,219.167 159.5,219.5C 144.741,219.969 130.074,219.302 115.5,217.5 Z"/></g>
<g><path style="opacity:1" fill="#4cd6c6" d="M 80.5,208.5 C 83.556,210.249 86.8894,211.249 90.5,211.5C 92.4352,212.15 94.4352,212.483 96.5,212.5C 99.3676,213.64 102.368,214.64 105.5,215.5C 107.102,217.074 109.102,217.741 111.5,217.5C 112.919,218.451 114.585,218.784 116.5,218.5C 116.5,218.833 116.5,219.167 116.5,219.5C 113.5,219.5 110.5,219.5 107.5,219.5C 106.391,219.443 105.391,219.11 104.5,218.5C 98.2632,214.349 91.2632,212.183 83.5,212C 81.5743,211.578 80.5743,210.411 80.5,208.5 Z"/></g>
<g><path style="opacity:1" fill="#aaf3e8" d="M 111.5,217.5 C 112.833,217.5 114.167,217.5 115.5,217.5C 130.074,219.302 144.741,219.969 159.5,219.5C 148.012,220.495 136.345,220.828 124.5,220.5C 122.162,218.96 119.495,218.294 116.5,218.5C 114.585,218.784 112.919,218.451 111.5,217.5 Z"/></g>
<g><path style="opacity:1" fill="#6cddc2" d="M 176.5,215.5 C 177.833,215.5 179.167,215.5 180.5,215.5C 176.498,217.61 172.165,218.943 167.5,219.5C 164.833,219.5 162.167,219.5 159.5,219.5C 159.5,219.167 159.5,218.833 159.5,218.5C 160.833,218.5 162.167,218.5 163.5,218.5C 168.261,218.876 172.595,217.876 176.5,215.5 Z"/></g>
<g><path style="opacity:1" fill="#99e9d5" d="M 223.5,215.5 C 223.833,215.5 224.167,215.5 224.5,215.5C 224.5,215.833 224.5,216.167 224.5,216.5C 223.29,216.932 222.29,217.599 221.5,218.5C 218.9,219.468 216.566,220.801 214.5,222.5C 213.833,222.833 213.167,223.167 212.5,223.5C 212.167,223.5 211.833,223.5 211.5,223.5C 211.833,222.833 212.167,222.167 212.5,221.5C 216.147,219.533 219.813,217.533 223.5,215.5 Z"/></g>
<g><path style="opacity:1" fill="#d6fdfb" d="M 60.5,218.5 C 61.1667,218.5 61.8333,218.5 62.5,218.5C 64.0495,219.441 65.7162,220.107 67.5,220.5C 68.6874,222.975 70.6874,223.975 73.5,223.5C 74.344,225.759 76.0107,226.759 78.5,226.5C 78.5,226.833 78.5,227.167 78.5,227.5C 75.5794,227.717 72.9128,227.051 70.5,225.5C 67.4045,222.805 64.0712,220.472 60.5,218.5 Z"/></g>
<g><path style="opacity:1" fill="#7ce4d3" d="M 116.5,219.5 C 116.5,219.167 116.5,218.833 116.5,218.5C 119.495,218.294 122.162,218.96 124.5,220.5C 121.833,220.167 119.167,219.833 116.5,219.5 Z"/></g>
<g><path style="opacity:1" fill="#90eee3" d="M 67.5,220.5 C 69.5439,221.508 71.5439,222.508 73.5,223.5C 70.6874,223.975 68.6874,222.975 67.5,220.5 Z"/></g>
<g><path style="opacity:1" fill="#d1fbf4" d="M 221.5,218.5 C 221.5,218.833 221.5,219.167 221.5,219.5C 219.453,221.075 217.119,222.075 214.5,222.5C 216.566,220.801 218.9,219.468 221.5,218.5 Z"/></g>
<g><path style="opacity:1" fill="#3fd3c3" d="M 67.5,218.5 C 70.5394,219.01 73.5394,219.677 76.5,220.5C 77.2341,221.708 77.5674,223.041 77.5,224.5C 80.5184,224.335 83.5184,224.502 86.5,225C 87.8825,226.271 88.8825,227.771 89.5,229.5C 88.8333,229.5 88.1667,229.5 87.5,229.5C 86.0697,228.463 84.403,227.796 82.5,227.5C 81.4324,226.566 80.099,226.232 78.5,226.5C 77.1007,225.11 75.4341,224.11 73.5,223.5C 71.5439,222.508 69.5439,221.508 67.5,220.5C 67.5,219.833 67.5,219.167 67.5,218.5 Z"/></g>
<g><path style="opacity:1" fill="#29d8bd" d="M 109.5,221.5 C 115.598,221.679 121.598,222.512 127.5,224C 126.5,224.333 125.5,224.667 124.5,225C 126.437,225.122 127.77,225.955 128.5,227.5C 124.833,226.833 121.167,226.167 117.5,225.5C 117.5,227.167 117.5,228.833 117.5,230.5C 121.024,231.365 123.69,232.699 125.5,234.5C 118.196,233.698 110.862,233.365 103.5,233.5C 104.936,231.917 106.602,230.417 108.5,229C 107.377,227.956 106.044,227.29 104.5,227C 105.843,224.768 107.51,222.934 109.5,221.5 Z"/></g>
<g><path style="opacity:1" fill="#4ed3b9" d="M 159.5,219.5 C 162.167,219.5 164.833,219.5 167.5,219.5C 166.5,220.167 165.5,220.833 164.5,221.5C 159.167,222.167 153.833,222.833 148.5,223.5C 142.481,222.533 136.481,222.533 130.5,223.5C 128.164,222.999 126.164,221.999 124.5,220.5C 136.345,220.828 148.012,220.495 159.5,219.5 Z"/></g>
<g><path style="opacity:1" fill="#30d4ba" d="M 107.5,219.5 C 110.5,219.5 113.5,219.5 116.5,219.5C 119.167,219.833 121.833,220.167 124.5,220.5C 126.164,221.999 128.164,222.999 130.5,223.5C 136.481,222.533 142.481,222.533 148.5,223.5C 147.524,224.815 146.524,226.148 145.5,227.5C 143.078,227.255 140.745,227.255 138.5,227.5C 137.459,225.009 136.626,225.009 136,227.5C 135.667,226.833 135.333,226.167 135,225.5C 133.246,227.25 131.079,227.917 128.5,227.5C 127.77,225.955 126.437,225.122 124.5,225C 125.5,224.667 126.5,224.333 127.5,224C 121.598,222.512 115.598,221.679 109.5,221.5C 108.833,220.833 108.167,220.167 107.5,219.5 Z"/></g>
<g><path style="opacity:1" fill="#2ed8b8" d="M 174.5,220.5 C 174.577,221.75 175.244,222.583 176.5,223C 172.396,223.115 168.729,224.281 165.5,226.5C 160.153,225.832 154.82,225.166 149.5,224.5C 149.338,226.527 149.505,228.527 150,230.5C 152.147,231.113 154.314,231.779 156.5,232.5C 153.244,233.751 149.91,234.751 146.5,235.5C 140.353,234.29 134.02,234.29 127.5,235.5C 126.508,235.672 125.842,235.338 125.5,234.5C 123.69,232.699 121.024,231.365 117.5,230.5C 117.5,228.833 117.5,227.167 117.5,225.5C 121.167,226.167 124.833,226.833 128.5,227.5C 131.079,227.917 133.246,227.25 135,225.5C 135.333,226.167 135.667,226.833 136,227.5C 136.626,225.009 137.459,225.009 138.5,227.5C 140.745,227.255 143.078,227.255 145.5,227.5C 146.524,226.148 147.524,224.815 148.5,223.5C 153.833,222.833 159.167,222.167 164.5,221.5C 167.939,221.747 171.272,221.414 174.5,220.5 Z"/></g>
<g><path style="opacity:1" fill="#77dcc3" d="M 212.5,221.5 C 212.167,222.167 211.833,222.833 211.5,223.5C 211.167,223.5 210.833,223.5 210.5,223.5C 209.167,223.833 207.833,224.167 206.5,224.5C 208.033,222.755 210.033,221.755 212.5,221.5 Z"/></g>
<g><path style="opacity:1" fill="#27d8c0" d="M 104.5,218.5 C 105.391,219.11 106.391,219.443 107.5,219.5C 108.167,220.167 108.833,220.833 109.5,221.5C 107.51,222.934 105.843,224.768 104.5,227C 106.044,227.29 107.377,227.956 108.5,229C 106.602,230.417 104.936,231.917 103.5,233.5C 103.167,233.5 102.833,233.5 102.5,233.5C 99.8257,231.432 96.8257,230.099 93.5,229.5C 92.7703,227.955 91.437,227.122 89.5,227C 91.8835,225.59 93.5502,223.59 94.5,221C 97.9431,220.779 98.2764,219.779 95.5,218C 98.5314,217.505 101.531,217.671 104.5,218.5 Z"/></g>
<g><path style="opacity:1" fill="#a4f2ea" d="M 73.5,223.5 C 75.4341,224.11 77.1007,225.11 78.5,226.5C 76.0107,226.759 74.344,225.759 73.5,223.5 Z"/></g>
<g><path style="opacity:1" fill="#9fead7" d="M 210.5,223.5 C 207.947,225.584 204.947,226.917 201.5,227.5C 201.5,227.167 201.5,226.833 201.5,226.5C 202.167,226.5 202.5,226.167 202.5,225.5C 203.959,225.567 205.292,225.234 206.5,224.5C 207.833,224.167 209.167,223.833 210.5,223.5 Z"/></g>
<g><path style="opacity:1" fill="#acf2eb" d="M 78.5,227.5 C 78.5,227.167 78.5,226.833 78.5,226.5C 80.099,226.232 81.4324,226.566 82.5,227.5C 82.8333,228.167 83.1667,228.833 83.5,229.5C 82.8333,229.5 82.1667,229.5 81.5,229.5C 81.0269,228.094 80.0269,227.427 78.5,227.5 Z"/></g>
<g><path style="opacity:1" fill="#92ebe2" d="M 82.5,227.5 C 84.403,227.796 86.0697,228.463 87.5,229.5C 86.8333,229.5 86.1667,229.5 85.5,229.5C 84.8333,229.5 84.1667,229.5 83.5,229.5C 83.1667,228.833 82.8333,228.167 82.5,227.5 Z"/></g>
<g><path style="opacity:1" fill="#4bd1ae" d="M 201.5,226.5 C 201.5,226.833 201.5,227.167 201.5,227.5C 199.302,227.12 197.635,227.787 196.5,229.5C 196.167,229.5 195.833,229.5 195.5,229.5C 193.901,229.232 192.568,229.566 191.5,230.5C 189.833,230.5 188.167,230.5 186.5,230.5C 186.611,229.883 186.944,229.383 187.5,229C 190.036,228.814 192.369,228.314 194.5,227.5C 196.764,226.781 199.097,226.448 201.5,226.5 Z"/></g>
<g><path style="opacity:1" fill="#96e9d3" d="M 201.5,227.5 C 201.5,228.167 201.167,228.5 200.5,228.5C 199.167,228.833 197.833,229.167 196.5,229.5C 197.635,227.787 199.302,227.12 201.5,227.5 Z"/></g>
<g><path style="opacity:1" fill="#d9fbf5" d="M 210.5,223.5 C 210.833,223.5 211.167,223.5 211.5,223.5C 211.833,223.5 212.167,223.5 212.5,223.5C 211.833,224.5 211.167,225.5 210.5,226.5C 209.609,227.11 208.609,227.443 207.5,227.5C 205.167,228.167 202.833,228.833 200.5,229.5C 200.5,229.167 200.5,228.833 200.5,228.5C 201.167,228.5 201.5,228.167 201.5,227.5C 204.947,226.917 207.947,225.584 210.5,223.5 Z"/></g>
<g><path style="opacity:1" fill="#c7f9ee" d="M 200.5,228.5 C 200.5,228.833 200.5,229.167 200.5,229.5C 198.95,230.441 197.284,231.107 195.5,231.5C 195.5,230.833 195.5,230.167 195.5,229.5C 195.833,229.5 196.167,229.5 196.5,229.5C 197.833,229.167 199.167,228.833 200.5,228.5 Z"/></g>
<g><path style="opacity:1" fill="#f5fdfc" d="M 70.5,225.5 C 72.9128,227.051 75.5794,227.717 78.5,227.5C 80.0269,227.427 81.0269,228.094 81.5,229.5C 81.4142,230.496 81.7476,231.329 82.5,232C 86.1789,232.026 89.5122,232.86 92.5,234.5C 88.0944,235.819 83.761,235.485 79.5,233.5C 80.5896,232.391 80.5896,231.391 79.5,230.5C 78.0325,229.305 76.5325,229.305 75,230.5C 73.2648,228.938 71.7648,227.271 70.5,225.5 Z"/></g>
<g><path style="opacity:1" fill="#bff8f2" d="M 85.5,229.5 C 86.1667,229.5 86.8333,229.5 87.5,229.5C 87.8333,230.167 88.1667,230.833 88.5,231.5C 86.9731,231.573 85.9731,230.906 85.5,229.5 Z"/></g>
<g><path style="opacity:1" fill="#9bece2" d="M 87.5,229.5 C 88.1667,229.5 88.8333,229.5 89.5,229.5C 91.0764,230.143 92.4097,231.143 93.5,232.5C 91.8828,231.962 90.2161,231.629 88.5,231.5C 88.1667,230.833 87.8333,230.167 87.5,229.5 Z"/></g>
<g><path style="opacity:1" fill="#4fd1c1" d="M 89.5,229.5 C 90.8333,229.5 92.1667,229.5 93.5,229.5C 96.8257,230.099 99.8257,231.432 102.5,233.5C 99.9039,232.735 97.2372,232.401 94.5,232.5C 94.1667,232.5 93.8333,232.5 93.5,232.5C 92.4097,231.143 91.0764,230.143 89.5,229.5 Z"/></g>
<g><path style="opacity:1" fill="#3bcfac" d="M 186.5,230.5 C 184.739,231.313 183.072,232.313 181.5,233.5C 180.609,234.11 179.609,234.443 178.5,234.5C 175.273,234.676 172.273,235.343 169.5,236.5C 165.119,236.372 160.785,236.705 156.5,237.5C 146.652,237.827 136.986,237.494 127.5,236.5C 141.201,236.53 154.868,235.863 168.5,234.5C 168.977,233.522 169.643,232.689 170.5,232C 175.834,231.433 181.167,230.933 186.5,230.5 Z"/></g>
<g><path style="opacity:1" fill="#64d5bc" d="M 186.5,230.5 C 188.167,230.5 189.833,230.5 191.5,230.5C 188.381,231.87 185.048,232.87 181.5,233.5C 183.072,232.313 184.739,231.313 186.5,230.5 Z"/></g>
<g><path style="opacity:1" fill="#aaeee0" d="M 195.5,229.5 C 195.5,230.167 195.5,230.833 195.5,231.5C 192.146,231.747 189.146,232.747 186.5,234.5C 182.833,235.167 179.167,235.833 175.5,236.5C 176.5,235.833 177.5,235.167 178.5,234.5C 179.609,234.443 180.609,234.11 181.5,233.5C 185.048,232.87 188.381,231.87 191.5,230.5C 192.568,229.566 193.901,229.232 195.5,229.5 Z"/></g>
<g><path style="opacity:1" fill="#81e0d5" d="M 94.5,232.5 C 97.2372,232.401 99.9039,232.735 102.5,233.5C 102.833,233.5 103.167,233.5 103.5,233.5C 103.5,233.833 103.5,234.167 103.5,234.5C 102.167,234.5 100.833,234.5 99.5,234.5C 97.8333,233.833 96.1667,233.167 94.5,232.5 Z"/></g>
<g><path style="opacity:1" fill="#ecfefc" d="M 207.5,227.5 C 203.151,230.341 198.484,232.674 193.5,234.5C 191.167,234.5 188.833,234.5 186.5,234.5C 189.146,232.747 192.146,231.747 195.5,231.5C 197.284,231.107 198.95,230.441 200.5,229.5C 202.833,228.833 205.167,228.167 207.5,227.5 Z"/></g>
<g><path style="opacity:1" fill="#dffdfb" d="M 81.5,229.5 C 82.1667,229.5 82.8333,229.5 83.5,229.5C 84.1667,229.5 84.8333,229.5 85.5,229.5C 85.9731,230.906 86.9731,231.573 88.5,231.5C 90.2161,231.629 91.8828,231.962 93.5,232.5C 93.8333,232.5 94.1667,232.5 94.5,232.5C 96.1667,233.167 97.8333,233.833 99.5,234.5C 100.78,235.931 102.447,236.598 104.5,236.5C 104.5,236.833 104.5,237.167 104.5,237.5C 100.357,237.096 96.3568,236.096 92.5,234.5C 89.5122,232.86 86.1789,232.026 82.5,232C 81.7476,231.329 81.4142,230.496 81.5,229.5 Z"/></g>
<g><path style="opacity:1" fill="#b7f8ed" d="M 99.5,234.5 C 100.833,234.5 102.167,234.5 103.5,234.5C 104.5,235.167 105.5,235.833 106.5,236.5C 105.833,236.5 105.167,236.5 104.5,236.5C 102.447,236.598 100.78,235.931 99.5,234.5 Z"/></g>
<g><path style="opacity:1" fill="#8ce7da" d="M 103.5,234.5 C 104.833,234.5 106.167,234.5 107.5,234.5C 108.5,235.167 109.5,235.833 110.5,236.5C 109.167,236.5 107.833,236.5 106.5,236.5C 105.5,235.833 104.5,235.167 103.5,234.5 Z"/></g>
<g><path style="opacity:1" fill="#64d5c5" d="M 107.5,234.5 C 110.152,234.41 112.485,235.076 114.5,236.5C 113.167,236.5 111.833,236.5 110.5,236.5C 109.5,235.833 108.5,235.167 107.5,234.5 Z"/></g>
<g><path style="opacity:1" fill="#51d4bc" d="M 103.5,234.5 C 103.5,234.167 103.5,233.833 103.5,233.5C 110.862,233.365 118.196,233.698 125.5,234.5C 125.842,235.338 126.508,235.672 127.5,235.5C 127.5,235.833 127.5,236.167 127.5,236.5C 136.986,237.494 146.652,237.827 156.5,237.5C 156.5,237.833 156.5,238.167 156.5,238.5C 146.873,239.421 137.206,239.755 127.5,239.5C 127.167,239.5 126.833,239.5 126.5,239.5C 125.791,238.596 124.791,238.263 123.5,238.5C 120.781,237.087 117.781,236.42 114.5,236.5C 112.485,235.076 110.152,234.41 107.5,234.5C 106.167,234.5 104.833,234.5 103.5,234.5 Z"/></g>
<g><path style="opacity:1" fill="#81e2c8" d="M 178.5,234.5 C 177.5,235.167 176.5,235.833 175.5,236.5C 173.5,236.5 171.5,236.5 169.5,236.5C 172.273,235.343 175.273,234.676 178.5,234.5 Z"/></g>
<g><path style="opacity:1" fill="#d9fcf5" d="M 186.5,234.5 C 182.607,236.876 178.273,237.876 173.5,237.5C 172.167,237.5 170.833,237.5 169.5,237.5C 169.5,237.167 169.5,236.833 169.5,236.5C 171.5,236.5 173.5,236.5 175.5,236.5C 179.167,235.833 182.833,235.167 186.5,234.5 Z"/></g>
<g><path style="opacity:1" fill="#cffaf6" d="M 104.5,237.5 C 104.5,237.167 104.5,236.833 104.5,236.5C 105.167,236.5 105.833,236.5 106.5,236.5C 107.833,236.5 109.167,236.5 110.5,236.5C 111.568,237.434 112.901,237.768 114.5,237.5C 114.5,237.833 114.5,238.167 114.5,238.5C 111.167,238.167 107.833,237.833 104.5,237.5 Z"/></g>
<g><path style="opacity:1" fill="#76dec4" d="M 169.5,236.5 C 169.5,236.833 169.5,237.167 169.5,237.5C 165.143,237.586 160.81,237.92 156.5,238.5C 156.5,238.167 156.5,237.833 156.5,237.5C 160.785,236.705 165.119,236.372 169.5,236.5 Z"/></g>
<g><path style="opacity:1" fill="#84e3d5" d="M 110.5,236.5 C 111.833,236.5 113.167,236.5 114.5,236.5C 117.781,236.42 120.781,237.087 123.5,238.5C 120.482,238.296 117.482,237.963 114.5,237.5C 112.901,237.768 111.568,237.434 110.5,236.5 Z"/></g>
<g><path style="opacity:1" fill="#b3f6eb" d="M 114.5,238.5 C 114.5,238.167 114.5,237.833 114.5,237.5C 117.482,237.963 120.482,238.296 123.5,238.5C 124.791,238.263 125.791,238.596 126.5,239.5C 124.167,239.5 121.833,239.5 119.5,239.5C 117.708,239.634 116.042,239.301 114.5,238.5 Z"/></g>
<g><path style="opacity:1" fill="#b8f6ea" d="M 169.5,237.5 C 164.537,238.718 159.537,239.718 154.5,240.5C 153.5,240.5 152.5,240.5 151.5,240.5C 143.316,240.826 135.316,240.492 127.5,239.5C 137.206,239.755 146.873,239.421 156.5,238.5C 160.81,237.92 165.143,237.586 169.5,237.5 Z"/></g>
<g><path style="opacity:1" fill="#e2fefb" d="M 169.5,237.5 C 170.833,237.5 172.167,237.5 173.5,237.5C 171.189,239.068 168.522,239.902 165.5,240C 161.848,240.499 158.182,240.665 154.5,240.5C 159.537,239.718 164.537,238.718 169.5,237.5 Z"/></g>
<g><path style="opacity:1" fill="#defdfa" d="M 119.5,239.5 C 121.833,239.5 124.167,239.5 126.5,239.5C 126.833,239.5 127.167,239.5 127.5,239.5C 135.316,240.492 143.316,240.826 151.5,240.5C 141.322,241.686 130.988,241.686 120.5,240.5C 119.833,240.5 119.5,240.167 119.5,239.5 Z"/></g>
<g><path style="opacity:1" fill="#f5fdfd" d="M 186.5,234.5 C 188.833,234.5 191.167,234.5 193.5,234.5C 190.65,235.798 187.65,236.964 184.5,238C 176.202,239.543 167.869,240.877 159.5,242C 159.957,242.414 160.291,242.914 160.5,243.5C 150.851,244.665 141.184,244.832 131.5,244C 127.573,243.276 123.906,242.109 120.5,240.5C 130.988,241.686 141.322,241.686 151.5,240.5C 152.5,240.5 153.5,240.5 154.5,240.5C 158.182,240.665 161.848,240.499 165.5,240C 168.522,239.902 171.189,239.068 173.5,237.5C 178.273,237.876 182.607,236.876 186.5,234.5 Z"/></g>
</svg>
